<?xml version="1.0" encoding="UTF-8"?>
<!-- Created with Inkscape (http://www.inkscape.org/) -->
<svg width="201.64mm" height="97.475mm" version="1.1" viewBox="0 0 201.64 97.475" xmlns="http://www.w3.org/2000/svg">
 <defs>
  <clipPath id="clipPath36">
   <path d="m11.827 76.153v86.894h186.04v-86.894zm78.579 61.545c0.92362 0.0186 1.6438 0.92307 1.434 2.2877 0.27801-0.16958 0.55573-0.34046 0.83612-0.50488 0.37465-0.18675 0.73516-0.40503 1.124-0.56017 1.073-0.42811 2.2165-0.54333 3.3672-0.55966 0.38356-5e-3 0.768-1e-3 1.1508 9e-3 0.51044 0.0114 1.0184 0.0281 1.5177 0.0315 3.127 0.0957 6.2656 0.16795 9.3648 0.63148 2.4063 0.40337 4.5399 0.93023 6.7092 2.0857 0.63148 0.31073 1.2362 0.67042 1.8557 1.003 0.27791-0.37765 0.75212-0.62522 1.3632-0.63562 0.52269-9e-3 1.1448 0.1553 1.8268 0.55811 0.72419 0.42773 0.3351 0.19668 1.1663 0.69505 0.21768 0.15452 0.43669 0.30937 0.65371 0.46612 0.43977 0.0244 0.94943 0.16457 1.5152 0.45785 1.2986 0.67326 2.4976 1.5192 3.6179 2.4562 0.83697 0.48762 1.6171 1.0609 2.2748 1.817 0.22892 0.30236 0.48893 0.58393 0.68678 0.90743 0.14118 0.23089 0.24937 0.47313 0.33951 0.72089 2.6019-0.90921 3.8858 1.7359 1.2821 3.3858 0.36699 0.30971 0.82211 0.53794 1.2051 0.81649 0.12331 0.093 1.5127 1.1576 1.4919 1.2309-0.97087 3.424-0.65443 3.594-2.3921 2.9724-1.1572-0.55212-2.1404-1.326-3.0303-2.2479-0.31883-0.32861-0.61729-0.67302-0.89762-1.0304-0.62659-0.0159-1.3587-0.35499-2.0645-1.2004-0.64595-0.77377-1.2932-1.5456-1.9715-2.2898-0.34903 0.87178-1.5591 1.3722-3.2458 0.59325-0.48277-0.22297-0.96499-0.44709-1.4469-0.6718-0.19487-0.0667-0.18861-0.0635-0.31677-0.10748-0.28383 5e-3 -0.58401-0.011-0.91571-0.0739-1.4345-0.2721-2.828-0.68357-4.2054-1.1627-0.52516-0.19082-1.0455-0.39161-1.5622-0.60048-0.0149 0.036-0.0271 0.073-0.0434 0.10852-0.16731 0.3645-0.79902 0.0705-1.1994 0.0935-1.5127 0.0867-3.0159 0.0234-4.5284-0.032-1.5653-0.10681-3.1355-0.17677-4.7005-0.29197-1.3859 0.15137-2.7693 0.32101-4.1424 0.56741-2.9627 0.51776-5.9422 0.91388-8.9328 1.2356-1.4011 0.1-2.8093 0.0994-4.2163 0.0439-1.0196 0.16557-0.93375 0.19614-1.6645-0.12144-0.49483-0.0377-0.99045-0.0655-1.4841-0.10852-0.37709 0.12588-0.75491 0.24897-1.1307 0.37207-1.5399 0.41368-2.9292 1.101-4.2437 1.9802-0.86742 0.48653-1.7901 1.089-2.8029 1.2206-0.27124 0.0351-0.54681 0.0221-0.8201 0.0331-0.32392-0.0991-0.66757-0.1476-0.97152-0.29714-1.0257-0.50464-1.7336-1.8062-1.3803-2.9419 0.11763-0.37814 0.42191-0.67007 0.63304-1.0051 0.54049-0.47188 1.1519-0.8407 1.7632-1.2108 0.0506-0.0306 0.09992-0.0562 0.14986-0.0842 0.01111-0.16384 0.02294-0.35397 0.02842-0.43305 0.14396-1.0606 0.40355-2.1789 1.0123-3.0815 0.18214-0.27002 0.4059-0.50949 0.60875-0.7643 1.028-1.0619 2.4106-1.4731 3.7119-2.0624 0.43101-0.19517 0.77984-0.42508 1.1818-0.67076 1.1581-0.75047 3.0131-1.6756 4.4101-1.7095 0.27938-7e-3 0.55633 0.0519 0.83457 0.078 0.16864 0.328 0.3765 0.64237 0.57413 0.96015 0.53911-0.6513 1.1503-1.2288 1.9591-1.5446 0.20594-0.0804 0.39741-0.14804 0.57722-0.20567 0.60386-1.1347 1.3962-1.6225 2.0826-1.6087zm-9.2258 9.0279c-0.06947 0.17282-0.12508 0.32512-0.15245 0.4253 0.05844-0.0256 0.1156-0.0459 0.17777-0.0687-0.01177-0.11894-0.02138-0.23801-0.02532-0.35657zm-7.8011 3.8985c-0.0536 0.02-0.19554 0.0147-0.16071 0.0599 0.01921 0.025 0.11904 1e-3 0.2589-0.0491-0.03322-3e-3 -0.0636-0.01-0.09819-0.0109zm58.587 1.5875c-0.0123-0.012-7e-3 0.0334-0.0114 0.0501 0.0316 0.0725 0.0688 0.13977 0.10903 0.20464-5e-3 -0.0996-0.032-0.18992-0.0977-0.25477z" fill="#f00"/>
  </clipPath>
  <clipPath id="clipPath36-7">
   <path d="m11.827 76.153v86.894h186.04v-86.894zm78.579 61.545c0.92362 0.0186 1.6438 0.92307 1.434 2.2877 0.27801-0.16958 0.55573-0.34046 0.83612-0.50488 0.37465-0.18675 0.73516-0.40503 1.124-0.56017 1.073-0.42811 2.2165-0.54333 3.3672-0.55966 0.38356-5e-3 0.768-1e-3 1.1508 9e-3 0.51044 0.0114 1.0184 0.0281 1.5177 0.0315 3.127 0.0957 6.2656 0.16795 9.3648 0.63148 2.4063 0.40337 4.5399 0.93023 6.7092 2.0857 0.63148 0.31073 1.2362 0.67042 1.8557 1.003 0.27791-0.37765 0.75212-0.62522 1.3632-0.63562 0.52269-9e-3 1.1448 0.1553 1.8268 0.55811 0.72419 0.42773 0.3351 0.19668 1.1663 0.69505 0.21768 0.15452 0.43669 0.30937 0.65371 0.46612 0.43977 0.0244 0.94943 0.16457 1.5152 0.45785 1.2986 0.67326 2.4976 1.5192 3.6179 2.4562 0.83697 0.48762 1.6171 1.0609 2.2748 1.817 0.22892 0.30236 0.48893 0.58393 0.68678 0.90743 0.14118 0.23089 0.24937 0.47313 0.33951 0.72089 2.6019-0.90921 3.8858 1.7359 1.2821 3.3858 0.36699 0.30971 0.82211 0.53794 1.2051 0.81649 0.12331 0.093 1.5127 1.1576 1.4919 1.2309-0.97087 3.424-0.65443 3.594-2.3921 2.9724-1.1572-0.55212-2.1404-1.326-3.0303-2.2479-0.31883-0.32861-0.61729-0.67302-0.89762-1.0304-0.62659-0.0159-1.3587-0.35499-2.0645-1.2004-0.64595-0.77377-1.2932-1.5456-1.9715-2.2898-0.34903 0.87178-1.5591 1.3722-3.2458 0.59325-0.48277-0.22297-0.96499-0.44709-1.4469-0.6718-0.19487-0.0667-0.18861-0.0635-0.31677-0.10748-0.28383 5e-3 -0.58401-0.011-0.91571-0.0739-1.4345-0.2721-2.828-0.68357-4.2054-1.1627-0.52516-0.19082-1.0455-0.39161-1.5622-0.60048-0.0149 0.036-0.0271 0.073-0.0434 0.10852-0.16731 0.3645-0.79902 0.0705-1.1994 0.0935-1.5127 0.0867-3.0159 0.0234-4.5284-0.032-1.5653-0.10681-3.1355-0.17677-4.7005-0.29197-1.3859 0.15137-2.7693 0.32101-4.1424 0.56741-2.9627 0.51776-5.9422 0.91388-8.9328 1.2356-1.4011 0.1-2.8093 0.0994-4.2163 0.0439-1.0196 0.16557-0.93375 0.19614-1.6645-0.12144-0.49483-0.0377-0.99045-0.0655-1.4841-0.10852-0.37709 0.12588-0.75491 0.24897-1.1307 0.37207-1.5399 0.41368-2.9292 1.101-4.2437 1.9802-0.86742 0.48653-1.7901 1.089-2.8029 1.2206-0.27124 0.0351-0.54681 0.0221-0.8201 0.0331-0.32392-0.0991-0.66757-0.1476-0.97152-0.29714-1.0257-0.50464-1.7336-1.8062-1.3803-2.9419 0.11763-0.37814 0.42191-0.67007 0.63304-1.0051 0.54049-0.47188 1.1519-0.8407 1.7632-1.2108 0.0506-0.0306 0.09992-0.0562 0.14986-0.0842 0.01111-0.16384 0.02294-0.35397 0.02842-0.43305 0.14396-1.0606 0.40355-2.1789 1.0123-3.0815 0.18214-0.27002 0.4059-0.50949 0.60875-0.7643 1.028-1.0619 2.4106-1.4731 3.7119-2.0624 0.43101-0.19517 0.77984-0.42508 1.1818-0.67076 1.1581-0.75047 3.0131-1.6756 4.4101-1.7095 0.27938-7e-3 0.55633 0.0519 0.83457 0.078 0.16864 0.328 0.3765 0.64237 0.57413 0.96015 0.53911-0.6513 1.1503-1.2288 1.9591-1.5446 0.20594-0.0804 0.39741-0.14804 0.57722-0.20567 0.60386-1.1347 1.3962-1.6225 2.0826-1.6087zm-9.2258 9.0279c-0.06947 0.17282-0.12508 0.32512-0.15245 0.4253 0.05844-0.0256 0.1156-0.0459 0.17777-0.0687-0.01177-0.11894-0.02138-0.23801-0.02532-0.35657zm-7.8011 3.8985c-0.0536 0.02-0.19554 0.0147-0.16071 0.0599 0.01921 0.025 0.11904 1e-3 0.2589-0.0491-0.03322-3e-3 -0.0636-0.01-0.09819-0.0109zm58.587 1.5875c-0.0123-0.012-7e-3 0.0334-0.0114 0.0501 0.0316 0.0725 0.0688 0.13977 0.10903 0.20464-5e-3 -0.0996-0.032-0.18992-0.0977-0.25477z" fill="#f00"/>
  </clipPath>
 </defs>
 <g transform="translate(-2.7185 -64.55)" fill="#f95" stroke="#000">
  <g stroke="none">
   <path transform="matrix(1.2008 0 0 1.2241 -21.986 -33.421)" d="m20.574 158.23 76.93-15.378 90.995 15.696-88.705-78.512z" clip-path="url(#clipPath36)" fill="#000"/>
   <path transform="translate(-1.7885 -6.4847)" d="m20.574 158.23 76.93-15.378 90.995 15.696-88.705-78.512z" clip-path="url(#clipPath36-7)" fill="#f00"/>
  </g>
  <g transform="translate(98.464 -53.399)" stroke="none">
   <path transform="matrix(1.2013 0 0 1.2013 .72839 -38.975)" d="m-42.507 211.6 42.142-8.7725 45.056 8.9373-46.062-40.769z" fill="#000"/>
   <path d="m-38.966 209.43 38.619-8.0391 41.29 8.1901-42.211-37.361z" fill="#f00"/>
  </g>
  <g transform="matrix(.55781 0 0 .55781 41.863 39.861)" fill="#000" stroke="none">
   <rect x="98.053" y="113.8" width="3.2919" height="23.775"/>
   <rect x="87.08" y="121.34" width="23.409" height="2.5603"/>
  </g>
 </g>
</svg>
