<?xml version="1.0" encoding="UTF-8"?>
<!-- Created with Inkscape (http://www.inkscape.org/) -->
<svg width="247.36" height="320" version="1.1" viewBox="0 0 247.36 320" xmlns="http://www.w3.org/2000/svg">
 <g>
  <path d="m64.625 310.87c-2.2289-0.23406-3.238-0.55466-4.3031-1.367-0.76527-0.5837-1.3914-1.3223-1.3914-1.6413 0-0.39331-0.44007-0.58007-1.3669-0.58007h-1.3669l-0.25872-3.1022c-0.14229-1.7062-0.29035-3.3757-0.32903-3.7099-0.03867-0.33418 0.14107-1.3249 0.39943-2.2016 0.25836-0.87669 0.68596-2.4542 0.95022-3.5057 0.26426-1.0514 0.6359-2.0078 0.82586-2.1252 0.18996-0.11733 0.34538-0.52926 0.34538-0.91523 0-0.8496-1.4358-3.905-1.9985-4.2528-0.22178-0.13708-0.40324-1.2253-0.40324-2.4182 0-1.6276-0.28651-2.6985-1.148-4.2908l-1.148-2.1219 0.39687-4.3057c0.34607-3.7546 0.31481-4.3964-0.24432-5.0142-0.50704-0.56027-0.62208-1.485-0.54985-4.4201 0.08823-3.5854 0.05508-3.7412-0.97476-4.5815-0.58636-0.47844-2.1618-1.7705-3.501-2.8714l-2.4349-2.0014 0.24191-2.2276c0.5986-5.5122-1.4293-15.386-3.8449-18.72l-1.2036-1.6616v-19.532l-3.1224-5.1481c-1.7173-2.8315-4.5082-7.2167-6.202-9.745l-3.0796-4.5969-2.7286 0.12606c-2.111 0.0975-2.8475-0.0173-3.2539-0.50681-0.28887-0.34808-0.73967-0.63286-1.0018-0.63286-0.26209 0-0.99528-0.54145-1.6293-1.2032l-1.1528-1.2033 0.70102-3.6569c0.49318-2.5727 0.5754-3.7825 0.27731-4.0806-0.6215-0.62148-0.52168-2.265 0.13757-2.265 0.3087 0 0.7499-0.49536 0.98044-1.1008 0.55914-1.4684 2.1918-3.2198 3.4461-3.6967 1.0536-0.40056 1.4625-2.0075 0.51086-2.0075-0.52393 0-9.1524-4.2852-11.349-5.6366-1.8411-1.1324-3.3559-3.6397-3.3559-5.5549 0-1.2494 0.35172-2.0655 1.5994-3.7113 1.771-2.3359 1.9804-3.4453 0.8442-4.4735-0.86389-0.78182-1.2277-2.1632-1.5124-5.7421-0.16057-2.0188-0.3315-2.5018-0.88536-2.5018-1.5803 0-2.1807-2.3122-1.1614-4.4721 0.54612-1.1572 2.6993-1.7828 7.7874-2.2625 1.578-0.14876 2.9365-0.36055 3.0189-0.47063 0.08236-0.11008 0.55852-1.508 1.0581-3.1064 0.7908-2.53 0.84369-3.0852 0.40853-4.2886-0.4313-1.1927-0.40719-1.4848 0.17573-2.1289 1.1973-1.323 0.86869-2.0845-0.8995-2.0845-2.3263 0-3.554-0.61676-4.2868-2.1536-0.35963-0.75415-1.0792-1.565-1.599-1.8018-0.75434-0.3437-0.94259-0.73542-0.93243-1.9403 0.0159-1.8847 0.71289-2.8262 2.7759-3.7498 1.2567-0.56261 1.6146-0.94263 1.6146-1.7141 0-0.55474 0.40439-1.3125 0.91833-1.7208 0.50508-0.40127 2.5821-2.9362 4.6157-5.6331 2.0335-2.697 3.8405-4.9036 4.0155-4.9036 0.46394 0 2.0589 1.777 2.0589 2.2938 0 0.6492 2.8734 2.8121 4.1672 3.1369 1.0261 0.25753 3.669 1.6763 6.9467 3.729 1.1587 0.72567 1.5452 0.77051 3.4112 0.39578l2.1044-0.42263 2.7933 2.6978c1.5363 1.4838 3.3337 3.5216 3.9942 4.5285 0.97849 1.4916 1.9051 2.2024 5.0036 3.8383 2.0915 1.1042 5.424 2.5505 7.4054 3.2141 2.9875 1.0004 3.6245 1.3602 3.7305 2.1071 0.11932 0.84018 0.32432 0.90065 3.0534 0.90065 3.0602 0 5.8253-0.81901 5.8253-1.7254 0-0.28261-0.73166-1.2259-1.6259-2.0962-2.6743-2.6026-3.9782-4.8666-3.9782-6.9076 0-1.5288 0.20552-1.9793 1.4295-3.1337 1.4222-1.3413 1.4495-1.3482 5.3425-1.3482h3.913l1.4789 1.4363c1.2041 1.1694 1.587 1.3466 2.0606 0.95361 0.6299-0.52276 1.4328-0.40731 4.1409 0.59542 1.1928 0.44168 2.0799 0.54039 2.7748 0.30875 0.96792-0.32263 1.016-0.47325 0.91796-2.8755-0.07143-1.7504 0.06092-2.6506 0.42756-2.9083 0.41605-0.29244 0.4227-0.41721 0.03065-0.57628-0.28558-0.11584-0.50036-0.90545-0.50036-1.8394 0-0.91562-0.27302-1.9381-0.61988-2.3213-0.39351-0.43483-0.52952-1.045-0.37243-1.6709 0.23982-0.95555 0.33589-0.98034 3.1217-0.80553l2.8743 0.18034 1.9053-1.8074 1.9053-1.8074 8.7497-0.014 1.9259 1.6674c1.0592 0.91706 2.0699 1.8952 2.246 2.1736 0.44126 0.69776 3.8967 0.6217 4.8601-0.10695 1.0263-0.77627 2.1899-0.74371 3.1078 0.087 0.69914 0.63273 0.86289 0.63261 2.6334-2e-3 1.0384-0.37216 2.339-0.67576 2.8903-0.67467 1.3968 2e-3 4.7582-2.7477 4.7826-3.9134 0.0256-1.2217 0.88503-1.4822 2.365-0.71691 0.66941 0.34616 1.5582 0.6294 1.975 0.6294 0.41685 0 1.8548 0.73653 3.1954 1.6368 2.348 1.5767 2.49 1.6178 3.8653 1.1205 0.78529-0.28397 1.4278-0.75749 1.4278-1.0523 0-1.5113 3.5877-6.1082 4.7672-6.1082 0.15775 0 0.79579-0.53125 1.4179-1.1806 0.82325-0.8593 1.5754-1.2133 2.764-1.3009 1.7642-0.13006 1.8735-0.30955 2.4635-4.0455 0.13231-0.83789 0.55951-1.8424 0.94932-2.2322 0.38981-0.38982 0.82941-1.0232 0.97686-1.4074 0.36279-0.9454-1.4455-3.2656-2.9552-3.7919-0.64727-0.22564-1.1768-0.66776-1.1768-0.98249 0-1.1024-0.9604-1.4806-2.1684-0.85388-1.2992 0.67403-3.3318 0.75579-4.8107 0.19352-0.78984-0.30029-1.0268-0.66979-1.0268-1.6012 0-0.66593 0.18014-1.2108 0.4003-1.2108 0.22015 0 0.40029-0.52976 0.40029-1.1773 0-0.64749-0.18014-1.2886-0.40029-1.4246-0.52837-0.32654-0.51303-1.9288 0.0237-2.4654 0.29831-0.29832 0.12046-0.96738-0.60043-2.2586-0.85908-1.539-1.0244-2.3484-1.0244-5.0159v-3.1808l-1.3958-0.26186c-0.76771-0.14402-2.7492-0.13922-4.4032 0.01064-2.486 0.22528-3.0074 0.39324-3.0074 0.96888 0 0.383-0.2702 0.9206-0.60044 1.1947-0.33023 0.27408-0.60044 0.72546-0.60044 1.0031 0 0.27762-0.49536 0.60188-1.1008 0.72059-0.8116 0.15913-1.3695-0.03894-2.1234-0.75392-0.56244-0.53333-1.2109-0.96972-1.441-0.96972s-1.1572-0.5352-2.0602-1.1893c-1.5883-1.1505-1.6457-1.2713-1.7613-3.7027-0.10283-2.1623-0.24528-2.5686-1.0201-2.9085-0.72851-0.31962-0.90065-0.71675-0.90065-2.0779 0-0.92552-0.15254-1.777-0.33897-1.8923-0.18644-0.11522-0.35473-0.76368-0.37399-1.441-0.0383-1.3487-0.90531-3.6005-1.3862-3.6005-0.16641 0-0.30257-0.36026-0.30257-0.80058 0-0.44032 0.18399-0.80058 0.40887-0.80058s0.60921-0.43969 0.85408-0.97709c0.36596-0.80322 0.29321-1.2347-0.40887-2.4246-1.5546-2.6348-1.276-3.1521 2.2482-4.1748 1.7062-0.49513 3.8228-1.0403 4.7034-1.2114 3.1602-0.61421 3.7043-1.2604 2.2045-2.6177-0.68888-0.62343-1.2837-0.69043-4.3604-0.49109-4.1717 0.27027-4.3323 0.16854-6.4041-4.0559-1.4739-3.0053-1.5056-3.3076-0.41755-3.9871 0.64925-0.40547 1.1334-0.41779 2.2274-0.05672 1.3882 0.45815 1.9511 0.42565 6.9503-0.4013 3.6702-0.60711 3.6946-0.61893 6.0672-2.9425 2.3834-2.3341 4.005-3.4793 4.9267-3.4793 0.33798 0 0.61452-0.2702 0.61452-0.60044 0-0.33024 0.34963-0.60044 0.77696-0.60044s0.88829-0.18013 1.0244-0.40029c0.38701-0.62619 2.4883-0.47307 2.7467 0.20015 0.34763 0.90593 1.9367 0.72198 3.4579-0.40029 0.74603-0.5504 1.9068-1.008 2.5796-1.017 1.7995-0.02386 5.3624-2.9296 6.7556-5.5094l1.1292-2.091 1.5642 1.1064c1.0931 0.77313 1.5668 1.4056 1.5728 2.0998 6e-3 0.66642 0.7004 1.664 2.1101 3.0303 1.1558 1.1202 2.732 2.8049 3.5026 3.7437 1.3067 1.592 1.4769 1.6777 2.5279 1.2728 2.6251-1.0112 3.6481-0.63928 7.1763 2.6089 1.8179 1.6737 3.9358 3.9153 4.7063 4.9815 0.77055 1.0662 1.6883 1.9485 2.0395 1.9606 0.86105 0.02983 1.658 1.0195 2.8053 3.4839 0.9714 2.0865 2.6161 3.3432 4.3755 3.3432 0.43285 0 0.787 0.19916 0.787 0.44258 0 0.24342 0.45033 0.97777 1.0007 1.6319 0.5504 0.65411 1.0007 1.5979 1.0007 2.0973 0 1.0778 0.9982 2.0701 2.4457 2.4312 0.57454 0.14335 1.91 1.1392 2.9676 2.2129 1.6345 1.6594 1.8457 2.0454 1.4082 2.5726-0.80118 0.96536-2.775 0.74891-4.3819-0.48052-1.2154-0.92984-1.9514-1.1355-4.7394-1.3244-2.4712-0.1674-3.5847-0.43366-4.4313-1.0596-0.7551-0.55826-1.8982-0.88294-3.4409-0.97729l-2.3101-0.14128 0.21003 1.2916c0.13252 0.8149 0.81084 1.8631 1.8379 2.8401 1.2324 1.1723 1.6278 1.8553 1.6278 2.8114 0 0.69457 0.19745 1.2629 0.43876 1.2629s1.4043 0.28069 2.5844 0.62376c1.7044 0.49549 2.3962 0.96444 3.364 2.2805 0.67008 0.91119 1.2183 2.1373 1.2183 2.7247 0 1.4035 1.3003 3.0077 3.2402 3.9973l1.5633 0.79755v3.1141c0 1.8484-0.19082 3.305-0.46949 3.5836-0.34866 0.34866-0.35578 0.71905-0.0276 1.4391 0.27138 0.59562 0.35299 2.1438 0.21157 4.0138l-0.23024 3.0441h-1.657c-1.2128 0-2.2403 0.3758-3.8331 1.402-1.1969 0.77111-2.4968 1.5038-2.8886 1.6281-1.7037 0.54073-0.32504 4.9518 1.8174 5.8148 0.70007 0.28202 1.8133 0.91507 2.4737 1.4068 0.66048 0.49172 1.6923 1.0167 2.2929 1.1665 1.3424 0.33497 2.3104 2.1337 2.3104 4.2928 0 1.8557 1.1639 3.7066 2.5496 4.0544 0.52654 0.13215 1.0446 0.57417 1.1514 0.98226 0.11408 0.4364 1.2942 1.2568 2.8652 1.992 1.4692 0.6875 3.4298 1.7916 4.3571 2.4536 1.363 0.97308 2.2152 1.2431 4.4494 1.4096 1.5199 0.11334 2.8563 0.29882 2.9697 0.41225 0.11345 0.11346 0.54931-0.1042 0.96863-0.48373 0.51558-0.46658 1.6276-0.73669 3.435-0.83432 2.6719-0.14433 2.673-0.14395 4.2549 1.4897 0.87028 0.89873 1.7915 1.634 2.0472 1.634 0.38433 0 1.2354 1.8353 1.9955 4.3031 0.0848 0.2752 0.33989 0.50036 0.56696 0.50036 0.54136 0 0.53339 1.7208-0.0102 2.2647-0.23282 0.23283-0.51116 1.3947-0.61851 2.5819-0.18925 2.0928-0.14283 2.2157 1.5241 4.0343 2.0802 2.2694 3.7175 4.8525 4.523 7.1356 0.87776 2.4878 0.78361 3.1228-0.48501 3.271-0.86129 0.10067-1.3909 0.66076-2.5802 2.7286-0.82302 1.431-1.5062 2.8288-1.5181 3.1061-0.0399 0.92439-3.4151 5.6838-4.0247 5.675-1.0196-0.0146-2.4018-2.6538-2.4018-4.5861 0-1.7055-0.71684-5.7962-1.0157-5.7962-0.0818 0-0.61074 0.46196-1.1754 1.0266-1.3692 1.3692-3.0421 1.2191-3.4476-0.30951-0.15819-0.59634-0.68957-1.6487-1.1808-2.3386-1.0653-1.4961-1.5685-1.0449-1.5852 1.4214-6e-3 0.88065-0.27679 2.5919-0.6018 3.8028s-0.59307 2.979-0.59569 3.9292c-7e-3 2.5701-0.5317 3.2761-2.4347 3.2761-2.2096 0-3.3878-0.90542-4.2315-3.2518-0.92557-2.574-1.4168-2.9778-2.3577-1.938-1.0499 1.1601-2.9781 6.9462-2.6883 8.0668 0.13167 0.50921 0.56743 1.4662 0.96832 2.1267 0.40091 0.66048 0.72959 1.5785 0.73041 2.04 1e-3 0.99843-0.99033 3.0924-1.7729 3.7419-0.46926 0.38945-0.3747 0.97882 0.60085 3.7448 1.2544 3.5566 1.4581 5.44 0.67319 6.2245-0.2752 0.27506-0.62187 1.7972-0.77038 3.3825-0.28312 3.0223-0.83257 6.0378-1.2994 7.1313-0.34331 0.80413-1.9381 1.5553-3.3019 1.5553-0.86764 0-0.95255 0.0945-0.53619 0.5961 0.34408 0.41457 0.41976 1.4202 0.24854 3.3024-0.43374 4.7682-0.93785 8.6865-1.2307 9.5662-0.1639 0.4923-0.10007 0.96964 0.15034 1.1244 1.3527 0.83601-0.55105 4.2246-2.3734 4.2246-0.97268 0-1.5946 1.1533-1.5946 2.957 0 0.77467-0.15709 1.8223-0.3491 2.328-1.3988 3.6842-1.706 8.5777-0.85962 13.69 0.39626 2.3936 0.41225 3.3424 0.0657 3.8974-0.27021 0.43267-0.45811 2.5023-0.45811 5.0459 0 3.8788 0.0805 4.3626 0.80059 4.8123 0.44032 0.27497 0.80058 0.92084 0.80058 1.4353 0 1.6943 1.1487 2.2602 4.5879 2.2602 2.6713 0 3.2291-0.12134 3.8501-0.83734 1.012-1.1668 1.6327-0.665 1.093 0.88347-0.23571 0.67612-0.32945 2.1895-0.20832 3.3631 0.16777 1.6256 0.0848 2.1858-0.34814 2.3519-0.31261 0.11996-0.56836 0.57338-0.56836 1.0076s-0.17524 0.89783-0.38942 1.0302c-0.21418 0.13236-0.58389 0.96287-0.82156 1.8455-0.23769 0.88268-0.69291 1.7049-1.0116 1.8272-0.3187 0.12234-0.57946 0.69923-0.57946 1.2821 0 0.94124-1.5773 5.8504-2.2072 6.8695-0.13299 0.21518-0.49319 0.39124-0.80042 0.39124-0.81847 0-2.5965 1.915-2.5965 2.7966 0 0.41732-0.18013 0.87009-0.40029 1.0062-0.67226 0.41549-0.44879 1.3642 0.51971 2.2062 1.411 1.2268 3.9775 2.4212 4.706 2.19 0.35909-0.11396 1.0865 0.12872 1.6165 0.53933 0.52995 0.4106 1.4536 0.86617 2.0525 1.0124 0.59889 0.1462 1.5571 0.7591 2.1293 1.362 0.87391 0.92079 1.0114 1.3715 0.85942 2.8172-0.0995 0.94654-0.30702 1.8472-0.46114 2.0014-0.15411 0.15424-4.003 0.34186-8.5531 0.41695-7.6364 0.12598-8.4358 0.072-10.389-0.70052-2.561-1.0129-3.2026-1.038-4.1692-0.1632-1.0446 0.94538-4.7802 1.4234-5.3662 0.68667-0.34704-0.43633-0.70964-0.46506-1.6651-0.13198-1.0063 0.3508-1.5061 0.2806-2.8373-0.39853-0.88871-0.45338-1.7606-1.0807-1.9375-1.3941-0.17693-0.31338-1.9429-2.4707-3.9243-4.794l-3.6026-4.2242-2.4253-0.0125c-2.8849-0.0146-3.8444-0.59696-4.0398-2.4515-0.21314-2.0232-0.27812-2.1127-2.7047-3.7234-1.2312-0.81721-2.2385-1.6563-2.2385-1.8647 0-0.20838-0.70881-0.37889-1.5751-0.37889-0.86631 0-2.0191-0.16882-2.5619-0.37516l-0.98675-0.37516-0.14842 3.2773c-0.12458 2.7509-0.32175 3.5344-1.2275 4.8784-0.98446 1.4608-1.0841 1.961-1.1364 5.7042-0.0504 3.6055-0.14153 4.103-0.75196 4.103-0.38206 0-1.0282 0.36859-1.4359 0.81909-1.1001 1.2156-4.4646 2.7835-5.9728 2.7835-0.72628 0-2.4678 0.42771-3.87 0.95046-1.4022 0.52276-3.7203 1.1544-5.1514 1.4035-1.431 0.24916-3.9323 0.87878-5.5583 1.3991-2.5775 0.82483-3.0264 1.1126-3.5026 2.2451-0.3004 0.71444-0.54617 1.9688-0.54617 2.7875s-0.12531 1.6138-0.27845 1.7669c-0.31028 0.31029-0.33311 0.40119-0.83917 3.3415-0.1974 1.147-0.57016 2.34-0.82836 2.6511-0.25818 0.3111-1.5922 0.87423-2.9644 1.2514-2.5122 0.69051-5.266 2.2419-6.2037 3.4951-0.27851 0.37219-1.1792 0.73245-2.0014 0.80059l-1.4951 0.12384-0.4003 7.9859-1.7622 0.64954c-2.1668 0.79865-5.7443 3.8903-6.9491 6.0052-0.63665 1.1176-1.3587 1.7411-2.4968 2.156-2.6103 0.95167-4.7008 1.412-6.4234 1.4144-1.7017 2e-3 -7.4157 1.1708-10.753 2.1989-2.0921 0.64454-6.7192 0.71969-11.755 0.19092zm11.568-0.60425c2.611-0.92188 8.6931-2.1833 10.539-2.1858 1.7189-2e-3 3.8021-0.46024 6.4234-1.4119 1.1523-0.41831 1.9202-1.0874 2.7393-2.3866 1.1788-1.8697 4.9923-5.406 5.8299-5.406 0.2624 0 1.002-0.27146 1.6436-0.60324 1.1535-0.59649 1.1678-0.64689 1.2811-4.5033l0.11458-3.9 1.371-0.13066c0.80796-0.0771 2.0409-0.67299 3.0022-1.4512 1.9766-1.6002 3.4183-2.3301 5.9648-3.0197 2.314-0.62663 2.8959-1.4303 3.2576-4.4987 0.14881-1.2624 0.43807-2.3989 0.64283-2.5254 0.20475-0.12654 0.37227-0.88215 0.37227-1.6791 0-0.79696 0.21778-2.0513 0.48396-2.7874 0.43752-1.2099 0.77978-1.4318 3.566-2.312 1.6951-0.53549 4.2928-1.1845 5.7726-1.4422 1.4798-0.2577 3.7821-0.8963 5.1162-1.4191 1.334-0.52282 3.0178-0.95057 3.7418-0.95057 1.6653 0 5.6211-1.9147 5.8624-2.8375 0.10037-0.3835 0.60492-0.75758 1.1214-0.83126 0.90151-0.12864 0.94444-0.29117 1.0737-4.065 0.12121-3.5376 0.2522-4.1163 1.3089-5.7825 1.0221-1.6116 1.1742-2.2296 1.1742-4.77v-2.9184l-1.4499-0.60582c-0.79745-0.33319-2.0462-0.6058-2.7751-0.6058-1.4016 0-1.5227-0.17132-1.9806-2.802-0.22839-1.3121-0.0645-1.5905 2.5806-4.3861 1.5534-1.6418 2.8244-3.2261 2.8244-3.5207 0-0.29464 0.45058-0.98629 1.0013-1.537 0.94704-0.94704 0.96873-1.0643 0.4003-2.1635-0.33055-0.63921-0.9075-1.3337-1.2821-1.5434-0.37461-0.20963-1.0501-1.5223-1.5011-2.9169l-0.81999-2.5358-3.6026-0.92595c-2.4044-0.61796-4.9239-1.6619-7.5753-3.1388-4.4437-2.4752-5.6016-2.5786-8.0407-0.71823-1.3233 1.0094-4.1984 1.3698-4.1984 0.52635 0-0.4803-1.8809-0.1547-2.6122 0.45219-0.22824 0.18943-0.72672 1.2107-1.1077 2.2695-0.79289 2.2035-2.6022 4.3334-5.0845 5.9856-2.7374 1.8219-3.3524 2.1318-4.2432 2.1381-0.46125 4e-3 -1.1818 0.38928-1.6012 0.85786-0.41941 0.46859-1.9334 1.6291-3.3645 2.579-1.9407 1.2882-2.8542 2.216-3.595 3.6513-0.54619 1.0584-1.2916 2.1456-1.6564 2.416-0.64728 0.47976-0.95774 1.6454-1.4149 5.3125-0.12346 0.99072-0.41375 2.0341-0.645 2.3186-0.55509 0.68305 0.0038 1.189 1.4941 1.3532 1.9192 0.21144 3.0774 2.3126 2.932 5.3189-0.11683 2.4157-0.11821 2.4182-1.8673 3.3006-0.96269 0.48568-2.0577 1.1612-2.4333 1.5011-0.93417 0.84541-3.8694 0.82027-4.3493-0.0373-0.31537-0.56353-0.97377-0.62828-4.7026-0.46245-2.7673 0.1231-4.3916 0.36014-4.49 0.6553-0.19643 0.58929-9.5325 0.64793-9.8946 0.0622-0.13607-0.22016-1.2347-0.4003-2.4413-0.4003-2.2034 0-4.2123-0.75259-6.7121-2.5146-1.0955-0.77219-1.3314-0.78545-5.2038-0.29247-2.2309 0.284-5.3723 0.59602-6.9809 0.69338-3.3031 0.19991-3.4707 0.53059-1.0901 2.1511 2.2926 1.5607 2.7615 2.7537 2.4468 6.2261-0.21388 2.3602-0.1379 3.117 0.39452 3.9295 0.56845 0.86756 0.61024 1.573 0.30294 5.1137-0.32106 3.6993-0.27876 4.2664 0.42566 5.7085 0.43017 0.88064 0.93141 1.914 1.1139 2.2962 0.18246 0.38228 0.33174 1.5621 0.33174 2.6219 0 1.0598 0.16316 2.098 0.36257 2.3071 0.83543 0.87622 2.0392 3.4792 2.0392 4.4094 0 0.55146-0.27792 1.4268-0.61759 1.9452-0.5798 0.88489-1.1572 3.2404-1.6563 6.7576-0.11894 0.83805-0.09196 2.6844 0.05996 4.103 0.27566 2.5741 0.27874 2.5792 1.5505 2.5792 0.91963 0 1.3842 0.24192 1.6694 0.86926 0.72097 1.586 2.3313 2.3894 5.4426 2.7152 5.1358 0.53781 9.3367 0.46291 11.214-0.19993zm103.34-44.264c0.77287 0.77287 3.6762 0.53525 4.8626-0.39798 1.2144-0.95527 3.3258-0.84293 5.5242 0.29392 1.0043 0.51936 2.568 0.60128 9.332 0.48893 4.4691-0.0742 8.2381-0.24778 8.3756-0.38561 0.13753-0.13784 0.34884-0.85937 0.46957-1.6034 0.17446-1.075 0.0135-1.575-0.78357-2.4352-0.55173-0.59532-1.5138-1.2072-2.138-1.3598-0.62421-0.15255-1.5517-0.6001-2.0611-0.99455-0.50942-0.39444-1.1948-0.61411-1.523-0.48815-0.71756 0.27534-3.1352-0.8904-4.656-2.245-1.0962-0.97644-1.4624-2.5615-0.70051-3.0324 0.22016-0.13606 0.4003-0.67687 0.4003-1.2018 0-1.0826-1.3454-2.2007-2.6481-2.2007-0.92461 0-1.3548-0.69279-1.3548-2.1819 0-0.50355-0.69492-2.2431-1.5443-3.8658l-1.5443-2.9502-4.1216-0.48412c-3.507-0.41192-4.2451-0.39764-4.9495 0.0957-0.45531 0.31891-1.148 0.57983-1.5394 0.57983-0.58301 0-0.71151 0.34705-0.71151 1.9214 0 2.3557-0.48096 2.8821-2.6331 2.8821-1.9949 0-4.0166 0.78509-5.7264 2.2237-1.1 0.92562-1.504 1.0277-3.3507 0.84653-3.4094-0.33444-4.7589-0.68439-7.4507-1.9322-4.0392-1.8724-5.952-1.0047-2.7069 1.2279 2.5792 1.7745 2.9493 2.2336 3.2538 4.0359 0.33757 1.998 1.0438 2.4045 4.1772 2.4045 1.3354 0 2.4281 0.16944 2.4281 0.37652s1.2159 1.6936 2.702 3.3033c1.4861 1.6098 3.3092 3.7003 4.0513 4.6457 1.6414 2.0909 3.3818 2.9182 4.9856 2.3695 0.78168-0.26741 1.2702-0.24792 1.5812 0.0631zm-96.49-7.2269c0.10374-0.31123 1.7191-0.53146 4.7488-0.64743 3.8848-0.14871 4.6743-0.0761 5.1289 0.47169 0.75135 0.90532 2.9814 0.81464 4.108-0.16705 0.51406-0.44796 1.5651-1.1234 2.3357-1.5011 1.2926-0.63351 1.4101-0.84253 1.519-2.7023 0.0923-1.5775-0.0847-2.3172-0.81453-3.4025-0.90232-1.3418-1.0553-1.4023-4.7214-1.8666-5.6777-0.71898-6.7041-1.1863-8.6404-3.9342-0.90708-1.2872-1.8853-3.2074-2.1739-4.2671-0.5624-2.0653-0.80118-2.2656-1.5808-1.3262-0.60532 0.72937-2.1537 0.78661-2.7068 0.10007-0.2217-0.27521-0.52678-1.0791-0.67796-1.7863-0.15118-0.70728-1.3185-2.532-2.5941-4.055-2.6059-3.1113-5.2311-8.2157-5.531-10.754-0.17112-1.4484-0.52403-1.9675-2.5148-3.699-2.0502-1.7832-3.2411-3.4279-6.7413-9.3099-0.63163-1.0615-0.61367-1.116 0.86614-2.6315 1.6274-1.6666 7.2816-4.8908 8.5769-4.8908 0.43511 0 1.111 0.35348 1.502 0.7855 0.39098 0.43205 1.3079 0.98255 2.0375 1.2233 1.2307 0.40618 1.3463 0.59563 1.5993 2.6205 0.19334 1.5475 0.62055 2.6185 1.4679 3.6802 0.65736 0.82366 1.96 2.6684 2.8948 4.0994 0.93478 1.431 2.0872 2.945 2.561 3.3644 0.47377 0.4194 0.8614 0.92245 0.8614 1.1179 0 0.57279 3.2097 4.7523 3.8333 4.9916 0.31343 0.12022 0.56986 0.46822 0.56986 0.77321s0.55923 1.0513 1.2427 1.6584c0.6835 0.60714 1.6929 1.9905 2.2432 3.0741 0.55026 1.0836 1.8853 3.1246 2.9668 4.5356 1.0815 1.411 2.2382 3.0913 2.5706 3.734 0.33235 0.64271 0.73476 1.1665 0.89422 1.164 0.15947-2e-3 0.63868-0.73237 1.0649-1.6219 0.81859-1.7083 3.4721-4.3779 4.3514-4.3779 0.28641 0 1.1352-0.63394 1.8862-1.4088 0.75099-0.77481 2.0546-1.5943 2.8969-1.8211 2.0237-0.54493 5.8904-3.2292 7.4536-5.1744 0.68777-0.85585 1.2505-1.6863 1.2505-1.8454s0.30648-0.98388 0.68103-1.8329c0.54219-1.2289 1.0057-1.6409 2.2734-2.0207 1.2419-0.37209 1.6279-0.37031 1.7541 7e-3 0.27299 0.81896 2.1745 0.53998 3.7469-0.54972 2.2266-1.5431 4.403-1.7089 6.2574-0.47691 3.696 2.4556 8.3588 4.4319 11.306 4.792 0.98433 0.12021 1.0026 0.0708 1.1183-3.0151 0.1047-2.796 1e-3 -3.3359-0.9519-4.9622-0.58817-1.0037-2.1263-3.9342-3.418-6.5122-1.2917-2.5781-2.8898-5.3685-3.5514-6.2009-0.66154-0.83244-1.2028-1.7461-1.2028-2.0303 0-1.5145-1.5915-1.8758-4.9436-1.1221-1.2429 0.27945-4.8962-0.39283-6.965-1.2817-1.2127-0.52103-1.301-0.69099-1.301-2.5048 0-2.3574-0.44715-2.8363-4.735-5.0722-2.8901-1.507-3.0778-1.6862-3.1916-3.0468-0.0887-1.0597 0.1359-1.7543 0.84118-2.6019 1.7744-2.1325 1.9679-2.8815 1.9586-7.5778-0.0101-4.7118-0.16747-5.308-2.0649-7.7888-0.58933-0.77056-1.3135-2.0315-1.6092-2.802-0.2957-0.77056-0.8061-1.7163-1.1342-2.1015-0.32811-0.38528-0.45784-0.70051-0.28832-0.70051s0.0173-0.44398-0.33826-0.98664-0.64647-1.2472-0.64647-1.5656c0-0.9118-2.3473-2.6516-3.5775-2.6516-0.61286 0-1.95 0.11458-2.9715 0.25456-1.5705 0.21525-1.8572 0.3907-1.8572 1.1366 0 0.55868 0.37692 1.0538 1.0281 1.3505 1.2781 0.58234 1.196 2.032-0.15294 2.7019-0.50939 0.25296-1.4517 0.96344-2.094 1.5788-1.0341 0.99069-1.2855 1.0652-2.1949 0.65087-0.5649-0.25738-1.0785-0.46797-1.1413-0.46797-0.06279 0-0.03578 0.94597 0.06017 2.1022 0.21593 2.6038-0.64721 3.6042-3.2239 3.7364-0.92845 0.0477-2.4086 0.32997-3.2893 0.62739-1.5047 0.50818-1.614 0.65252-1.8147 2.3959-0.32994 2.8668-0.74452 3.1469-4.6589 3.1469-3.9009 0-5.1198-0.47372-7.585-2.9479-2.2409-2.249-4.6045-4.2574-5.0104-4.2574-0.55967 0-3.1248-2.9601-3.1364-3.6194-6e-3 -0.33944-0.82841-1.4196-1.8277-2.4003-1.4968-1.469-1.8845-1.6776-2.2009-1.1842-0.21122 0.32943-0.27246 1.3737-0.1361 2.3206 0.31666 2.199-0.48818 2.9326-2.8668 2.613-1.8148-0.24386-2.1857 0.0442-3.5612 2.7645-0.45455 0.89896-1.1867 1.8268-1.627 2.062-2.8521 1.5229-3.397 2.0557-3.3997 3.3244-0.0015 0.70254-0.18287 1.3887-0.40303 1.5247-0.22016 0.13607-0.40029 0.53215-0.40029 0.88016 0 0.98974-1.2494 1.6951-3.0271 1.709-1.4689 0.0113-1.8421-0.21409-3.8601-2.3336-2.0707-2.1748-2.4757-2.4116-5.5393-3.2382-5.4097-1.4597-8.203-1.7686-11.327-1.2527-2.0944 0.34589-3.0366 0.72188-3.8728 1.5457-0.60781 0.59872-1.752 1.629-2.5426 2.2895-0.79064 0.66049-1.4413 1.5059-1.4458 1.8787-0.0047 0.37279-0.40163 0.95332-0.88237 1.29-0.78027 0.54652-0.81789 0.71719-0.35057 1.5904 0.43872 0.81975 0.41393 1.5303-0.1531 4.3878-0.63505 3.2003-0.63508 3.473-6.01e-4 4.4414 0.3718 0.56743 1.0968 1.1373 1.6112 1.2664 0.51436 0.12911 1.1448 0.48723 1.4009 0.79589 0.53869 0.64907 3.6527 0.75933 4.7568 0.16841 0.64204-0.34361 1.3355 0.52151 5.5422 6.9146 2.6446 4.0191 5.5423 8.654 6.4394 10.3l1.6311 2.9926 0.0056 9.5349 0.0056 9.5349 1.1881 1.7268c0.65344 0.94975 1.6326 3.0537 2.1758 4.6755 1.1368 3.3936 2.0295 10.685 1.7227 14.072-0.19087 2.107-0.12486 2.3721 0.72994 2.9322 1.0812 0.70845 4.9737 0.62631 11.528-0.24328l3.9349-0.52204 3.1177 1.6612c2.583 1.3763 3.5002 1.6612 5.3482 1.6612 1.2268 0 2.3419 0.18012 2.4779 0.40029 0.36532 0.59109 8.8986 0.52413 9.0971-0.0714zm115.19-8.1346c0.27408-0.33024 0.74554-0.60043 1.0477-0.60043 0.4937 0 1.1017-1.1005 2.4982-4.5221 0.25133-0.61581 0.45699-1.7416 0.45699-2.5018 0-0.95385 0.1837-1.3822 0.5928-1.3822 0.32605 0 0.69815-0.49536 0.82693-1.1008 0.12875-0.60545 0.49244-1.5789 0.8082-2.1633 0.31575-0.58438 0.5741-1.341 0.5741-1.6814s0.22517-0.76291 0.50037-0.93898c0.54301-0.34739 0.73101-5.724 0.20014-5.724-0.16512 0-0.30021 0.18013-0.30021 0.40029 0 0.2381-1.5048 0.4003-3.7138 0.4003-3.2255 0-3.8045-0.10584-4.4032-0.80517-0.37918-0.44283-0.68939-1.2413-0.68939-1.7743 0-0.61762-0.2904-1.0614-0.80059-1.2233-0.74065-0.23506-0.80058-0.60565-0.80058-4.9506 0-2.9021 0.16944-4.8659 0.44347-5.1399 0.54925-0.54926-0.0854-5.8656-0.9041-7.5738-1.125-2.3472-4.6649-2.6707-5.5606-0.50817l-0.48053 1.1601h-4.0007c-5.1783 0-7.3188-0.72351-10.324-3.4897-1.5544-1.4307-2.6141-2.8568-3.3636-4.5269-0.75375-1.6796-1.4264-2.5823-2.162-2.9014-0.58725-0.25474-1.6333-0.88076-2.3245-1.3912-1.3423-0.99115-4.6445-1.6949-7.9712-1.6987-1.6152-1e-3 -2.3514-0.2441-3.6545-1.2024l-1.6319-1.2001-3.5267 0.35748c-3.245 0.3289-3.6086 0.45553-4.5514 1.585-1.232 1.4759-2.6686 2.0588-5.0736 2.0588-0.98734 0-2.3214 0.27213-2.9646 0.60474-1.0596 0.54795-1.1304 0.70775-0.75404 1.7012 0.22848 0.60308 0.74492 1.4568 1.1476 1.8971 0.40275 0.44032 1.4939 2.3317 2.4247 4.2031 0.93085 1.8714 1.8426 3.6727 2.026 4.0029 3.7469 6.7448 3.5701 6.2588 3.5701 9.8143 0 1.8414 0.17776 3.458 0.39503 3.5922 0.21726 0.13428 0.68283 1.2707 1.0346 2.5254 0.36629 1.3065 1.0419 2.6234 1.5811 3.0819 0.51787 0.44033 1.1395 1.3244 1.3813 1.9647 0.38697 1.0244 0.31794 1.2913-0.57516 2.2235-0.5582 0.58265-1.0149 1.3047-1.0149 1.6045 0 0.29986-0.43212 1.0105-0.96027 1.5793-4.8334 5.2049-4.7285 5.0371-4.2523 6.8056 0.39427 1.4642 0.56836 1.6338 1.677 1.6338 0.6804 0 2.4855 0.45033 4.0114 1.0007 2.8532 1.0292 5.6921 1.3073 6.129 0.60043 0.44121-0.71388 2.1445-0.42627 4.7411 0.80058 1.3979 0.66049 3.009 1.2009 3.5801 1.2009 0.57113 0 1.1497 0.18013 1.2858 0.40029 0.13606 0.22016 1.1095 0.4003 2.1632 0.4003 1.386 0 2.1096-0.21421 2.6168-0.77462 1.0724-1.185 4.0366-2.4277 5.7906-2.4277 2.5939 0 2.8391-0.22842 2.8391-2.6447 0-1.6828 0.13678-2.1588 0.62032-2.1588 0.34117 0 1.1361-0.26671 1.7664-0.59268 0.97864-0.50608 1.7708-0.52287 5.422-0.11483l4.2759 0.47781 1.4632 2.8168c0.80475 1.5493 1.5532 3.5374 1.6633 4.418 0.1663 1.3304 0.36748 1.6248 1.1896 1.7407 0.54417 0.0768 1.3498 0.39199 1.7903 0.70051 1.0265 0.71903 1.6029 0.7088 2.2239-0.0395zm-102.07-3.0022c0-0.44032 0.18013-0.80058 0.40029-0.80058 0.22016 0 0.40029-0.79997 0.40029-1.7777 0-0.97774 0.15498-1.8735 0.34439-1.9905 0.18941-0.11708 0.45717-1.0358 0.59503-2.0416 0.27636-2.0162-0.28078-3.1759-3.454-7.1896-0.87466-1.1063-2.0266-2.9651-2.5598-4.1306-0.57867-1.2648-1.3619-2.2979-1.9428-2.5626-0.53529-0.24389-1.086-0.82139-1.2237-1.2833s-0.58854-1.1101-1.0017-1.4404c-0.77399-0.61858-3.2744-4.0007-6.7587-9.1419-1.0949-1.6156-2.5126-3.5317-3.1504-4.2581-0.84256-0.95962-1.2342-1.9175-1.4323-3.5031-0.24169-1.9344-0.41812-2.256-1.5528-2.8304-0.70409-0.35642-1.7305-0.93812-2.2809-1.2927-0.94491-0.60871-1.1235-0.58536-3.2023 0.4187-3.1854 1.5386-3.6594 1.834-5.5727 3.4736l-1.7266 1.4797 1.251 1.9228c0.68805 1.0576 1.5405 2.5521 1.8944 3.3212 0.35386 0.7691 1.9123 2.6448 3.4632 4.1683 2.3629 2.3211 2.8747 3.0634 3.1581 4.5806 0.52466 2.8084 3.2483 8.0084 5.6317 10.752 1.222 1.4068 2.3222 3.1276 2.5342 3.9637 0.5273 2.0796 1.3922 2.5162 2.7963 1.4117 0.61488-0.48367 1.237-0.73914 1.3826-0.5677 0.14553 0.17144 0.5695 1.292 0.94216 2.4902 0.37266 1.1982 1.3943 3.1278 2.2704 4.2881 1.2649 1.6754 1.9427 2.1996 3.2924 2.5465 0.93478 0.24027 1.8797 0.50298 2.0999 0.58382 0.22016 0.0809 1.0758 0.16121 1.9014 0.17859 1.2448 0.0261 1.5011-0.10507 1.5011-0.76898zm92.517-39.196c0.42162-0.9525 0.83878-1.2162 2.2619-1.4296 1.2659-0.18983 2.0085-0.0889 2.7048 0.3673 0.52796 0.34593 1.0426 0.62897 1.1437 0.62897 0.10108 0 0.26113-1.396 0.35571-3.1023 0.0946-1.7062 0.39677-3.8228 0.67153-4.7034 0.27475-0.88065 0.61639-2.4118 0.75918-3.4025 0.30509-2.1169 1.3034-3.7146 2.1241-3.3996 0.31812 0.12209 0.99936-0.23009 1.5227-0.78712 0.88335-0.94027 0.91233-1.1131 0.43117-2.571-0.30812-0.93365-0.37563-1.7816-0.16761-2.106 0.32539-0.50739 0.68333-3.1876 1.1985-8.9746 0.17015-1.9112 0.0818-2.5386-0.4152-2.9511-1.0276-0.85284-0.73213-1.2265 0.96988-1.2265 1.7647 0 3.0539-0.9537 3.368-2.4916 0.10232-0.50096 0.30726-1.4512 0.45542-2.1117 0.14815-0.66047 0.3563-2.3657 0.46257-3.7894 0.10621-1.4236 0.4463-2.9498 0.75564-3.3915 0.30935-0.44165 0.56245-1.2025 0.56245-1.6908 0-0.96028-1.8869-6.5266-2.398-7.074-0.17167-0.18385-0.88538-0.0378-1.5861 0.32452-1.7943 0.92785-3.0346 0.6813-2.9714-0.59067 0.0274-0.5504 0.28304-1.5624 0.56824-2.249 0.45708-1.1004 0.41212-1.5104-0.37931-3.4604-1.1861-2.9223-2.3627-4.0296-3.8891-3.6599-1.6149 0.39112-3.3546 1.6889-3.3546 2.5024 0 0.37633-0.2758 1.078-0.61288 1.5593-0.5092 0.72698-0.7845 0.80975-1.6274 0.4893-1.7203-0.65405-2.5632 0.11896-2.5632 2.3505 0 1.049-0.21616 2.1235-0.48035 2.3877-0.8482 0.84821-4.4471 0.58649-5.9652-0.4338-1.2169-0.81786-1.3729-1.1338-1.481-2.9992-0.14065-2.4259-0.19429-2.4684-5.1688-4.0984l-3.3165-1.0867v2.9152c0 3.4818-1.1282 6.1529-3.7953 8.9854-0.93286 0.99071-1.8054 2.1152-1.9389 2.499-0.27781 0.79828 1.1124 2.3045 2.1271 2.3045 2.0918 0 2.1882 2.9556 0.16924 5.1904-1.599 1.7699-5.1055 3.6161-6.868 3.6161-1.0821 0-2.2855-1.1641-3.7172-3.5956-0.29192-0.4958-0.53359-0.42153-1.4691 0.45145-1.5492 1.4456-2.6368 1.9433-4.2468 1.9433-2.129 0-2.5671 0.83382-1.702 3.2395 1.1454 3.1854 0.74964 6.5696-1.2949 11.071-0.92501 2.0368-1.6818 4.0903-1.6818 4.5634 0 0.47305-0.4854 1.8187-1.0787 2.9904s-0.99857 2.2098-0.90066 2.3069c0.0979 0.0972 0.98862 0.02 1.9793-0.17149 3.5213-0.68052 5.162-0.48333 6.805 0.81789 1.2563 0.995 1.8838 1.2013 3.6602 1.2032 3.5072 4e-3 6.6414 0.67812 8.0473 1.7314 0.71608 0.53648 1.7269 1.1048 2.2462 1.2628 0.65022 0.19792 1.2974 1.0538 2.0784 2.7484 1.64 3.5587 4.6081 6.4509 7.7998 7.6005 0.91203 0.3285 3.2315 0.59129 5.4558 0.6181l3.8693 0.0466zm-54.464-10.174c1.225-0.0703 2.4859-0.28981 2.802-0.48782 0.31614-0.19804 1.7925-0.47324 3.2807-0.61156 1.7703-0.16456 2.9832-0.50255 3.5081-0.97752 1.0505-0.9507 3.9935-7.105 3.9935-8.3511 0-0.53367 0.75602-2.5459 1.6801-4.4717 2.056-4.2847 2.4074-7.1403 1.285-10.442-0.94659-2.7848-0.60402-3.3547 2.3738-3.9493 1.6578-0.33104 2.6524-0.81425 3.6339-1.7656l1.3513-1.3098 1.691 2.2397c0.98451 1.304 2.0006 2.2397 2.4321 2.2397 1.5864 0 5.0394-1.9252 6.4876-3.617 1.945-2.2723 1.9336-3.3413-0.0463-4.3514-3.053-1.5576-3.103-2.6878-0.24936-5.6415 0.95717-0.99073 2.0161-2.4645 2.3532-3.275 0.33706-0.81054 0.7957-1.5867 1.0192-1.7248 0.24414-0.1509 0.40636-2.5249 0.40636-5.947 0-4.5453 0.15166-6.1266 0.75077-7.8278 0.9688-2.751 1.8893-3.874 2.6548-3.2388 0.68914 0.57194 2.0765 0.1756 2.5557-0.73013 0.32614-0.61648 1.3291-6.1879 1.13-6.2774-0.0474-0.0212-1.0631-0.83858-2.2572-1.8162-1.1941-0.9776-2.7252-1.9834-3.4025-2.2351-0.67724-0.25172-2.3121-0.87156-3.6331-1.3774-1.536-0.58824-3.8446-1.0316-6.4047-1.23-5.8868-0.45627-7.9131-0.77766-8.7954-1.395-0.43427-0.30389-1.6952-0.55648-2.802-0.56133-2.6129-0.0113-4.7178-1.0054-7.3163-3.4549-1.6616-1.5664-2.1015-2.2421-2.1015-3.2282 0-0.68596 0.1351-1.3072 0.30022-1.3806 0.58526-0.26013 2.5018-4.2595 2.5018-5.2207 0-0.75704-0.6146-1.3959-2.7397-2.848-1.5068-1.0296-3.083-1.8731-3.5026-1.8744-0.41956-1e-3 -1.2769-0.2706-1.9053-0.59831-1.2925-0.67412-1.8597-0.49404-1.8597 0.59038 0 1.0767-3.4851 4.0138-4.7598 4.0113-0.57445-1e-3 -1.9061 0.30684-2.9592 0.6843-1.822 0.65305-1.9795 0.65139-3.2524-0.0341-1.2389-0.66719-1.4287-0.67339-2.5687-0.0838-0.67704 0.35012-2.0515 0.63656-3.0544 0.63656-1.6225 0-2.0131-0.19231-3.544-1.7452-0.94626-0.95987-2.0711-1.929-2.4995-2.1536-0.42847-0.22465-2.5681-0.40546-4.7547-0.40182-3.7561 6e-3 -4.0318 0.0644-4.9934 1.0528-2.0001 2.0559-2.8998 2.4418-5.6988 2.4446-2.7724 2e-3 -3.7304 0.61976-2.5209 1.6236 0.3413 0.28325 0.57664 1.1937 0.57664 2.2309 0 0.96377 0.18013 1.7523 0.40029 1.7523s0.40029 0.36026 0.40029 0.80058c0 0.44033-0.18013 0.80059-0.40029 0.80059-0.757 0-0.44875 3.6149 0.40029 4.6943 0.87225 1.1089 1.0841 3.6686 0.36322 4.3894-0.31631 0.31631-0.31631 0.66358 0 1.2546 0.24055 0.44948 0.43737 1.8992 0.43737 3.2217 0 1.3224 0.15863 2.5025 0.3525 2.6223 0.19388 0.11984 0.45 0.6258 0.56918 1.1244 0.11921 0.49861 0.49452 1.9874 0.83412 3.3083 0.3396 1.321 0.62385 3.0666 0.6317 3.8792 0.0075 0.81262 0.19439 1.5888 0.41455 1.7249 0.22016 0.13606 0.40029 1.1268 0.40029 2.2016 0 1.0748-0.18013 2.0655-0.40029 2.2016-0.22016 0.13605-0.40029 1.1205-0.40029 2.1877 0 1.7756 0.16142 2.105 1.9014 3.8804 1.0596 1.0812 2.6102 2.1836 3.5025 2.4902 2.2293 0.76576 2.6019 1.1518 2.6019 2.6955 0 0.91508 0.25735 1.5093 0.80058 1.8486 0.44033 0.27498 0.80059 0.70545 0.80059 0.9566 0 0.25116 0.63045 0.93752 1.401 1.5252 0.77057 0.58774 1.401 1.3837 1.401 1.7688 0 0.38508 0.15782 0.87128 0.35071 1.0804 0.19288 0.20915 0.8518 1.5511 1.4642 2.9822 0.61245 1.431 1.5962 3.2324 2.1862 4.0029 1.9388 2.5323 2.0833 3.0822 2.0903 7.9546 7e-3 4.94-0.29894 6.2412-1.9208 8.1686-1.7251 2.0502-1.2649 3.0312 2.2948 4.8921 4.1731 2.1815 4.7427 2.7566 4.7427 4.789 0 2.2188 0.62734 2.9418 2.9206 3.3658 1.0559 0.19524 2.0462 0.48133 2.2007 0.63577 0.15443 0.15444 1.0918 0.17492 2.083 0.0455 0.99123-0.12942 2.8045-0.29279 4.0295-0.36307zm-82.059-18.695c0.42585-0.2279 0.77427-0.75766 0.77427-1.1772 0-0.41959 0.18013-0.87422 0.40029-1.0103s0.40029-0.74576 0.40029-1.3549c0-1.2596 1.1575-2.4644 3.1074-3.2344 0.8028-0.31702 1.3979-0.88181 1.5445-1.4658 0.13115-0.52254 0.39905-0.95006 0.59535-0.95006s0.3569-0.35611 0.3569-0.79135c0-1.2282 1.7435-2.1507 3.5954-1.9023 1.9941 0.26746 2.7551-0.45693 2.1538-2.05-0.52694-1.396 0.06693-3.2621 1.0382-3.2621 0.75176 0 4.0205 3.2691 4.0205 4.0209 0 0.92186 2.6105 3.5703 3.5262 3.5774 0.50835 4e-3 0.81964 0.17653 0.69175 0.38345-0.12789 0.20695 0.43448 0.88244 1.2497 1.5011 0.81523 0.61868 2.0351 1.7275 2.7107 2.4641 1.9631 2.1401 3.7714 2.8639 7.1549 2.8639 3.5052 0 4.1599-0.48174 4.3532-3.2031 0.12146-1.7084 0.20988-1.8276 1.7291-2.3277 0.88064-0.28991 2.5018-0.62989 3.6026-0.75551 2.8789-0.32853 3.1443-0.65022 2.8511-3.4557-0.26324-2.5186-0.24594-2.5345 1.8216-1.6807 0.46186 0.19075 1.0105-0.10582 1.7674-0.95531 0.60369-0.67755 1.316-1.2319 1.5829-1.2319s0.72562-0.28963 1.0194-0.64362c0.45971-0.55392 0.38286-0.75382-0.55143-1.4344-0.73186-0.53312-1.0856-1.1544-1.0856-1.9067 0-1.04 0.14304-1.137 2.1015-1.4259 1.1558-0.17047 2.5068-0.27084 3.0022-0.22307 1.1164 0.1077 1.1764-0.59526 0.10007-1.1713-0.55544-0.29727-0.80059-0.83813-0.80059-1.7664 0-1.5587-0.55709-2.1295-2.4399-2.4998-1.5443-0.30374-5.0253-3.6416-5.4144-5.1917-0.21828-0.86973-0.15681-1.5882 0.50379-5.8879 0.13986-0.91038 0.05442-1.7173-0.20969-1.9814-0.2451-0.2451-0.44841-1.0851-0.45179-1.8667-0.0075-1.7172-1.4588-7.6494-2.0051-8.1957-0.21478-0.21478-0.39051-1.4268-0.39051-2.6934s-0.21513-2.775-0.47806-3.3521c-0.37055-0.81327-0.37055-1.2214 0-1.8147 0.54975-0.88028 0.6152-2.3422 0.1385-3.0935-0.25071-0.39517-0.59339-0.41471-1.4644-0.0836-1.2708 0.48317-2.8647 0.26944-5.102-0.68411-1.3954-0.59474-1.5564-0.59096-2.2684 0.0533-0.73526 0.6654-0.83461 0.62729-2.4491-0.93951l-1.6828-1.633h-3.4165c-3.0126 0-3.5691 0.11647-4.7074 0.98459-1.0028 0.7649-1.3526 1.3961-1.5674 2.8288-0.32033 2.1361-0.12083 2.5266 3.1804 6.2264 3.5484 3.9768 2.9807 4.8778-3.2178 5.1072-4.0732 0.15079-4.1192 0.14219-4.2515-0.79238-0.1134-0.80135-0.6807-1.1289-3.7363-2.1572-5.3376-1.7964-11.162-5.0854-12.252-6.9189-0.48254-0.81162-2.1987-2.7775-3.8137-4.3686l-2.9364-2.8929-2.0304 0.38504c-1.9468 0.36921-2.1455 0.31983-4.8274-1.1999-1.5384-0.87172-3.1893-1.8597-3.6688-2.1956-0.47948-0.33585-1.1611-0.61063-1.5147-0.61063-0.88446 0-4.404-2.3794-4.68-3.164-0.29037-0.82532-1.3346-2.0398-1.7539-2.0398-0.17926 0-1.9281 2.1165-3.8864 4.7034-1.9583 2.5869-3.9453 5.0466-4.4155 5.466-0.47027 0.41938-0.85504 1.1651-0.85504 1.6572 0 0.66667-0.45451 1.1082-1.784 1.7332-1.9286 0.90654-2.6192 1.8123-2.6192 3.4349 0 0.69999 0.30632 1.1752 0.94516 1.4663 0.51984 0.23686 1.2394 1.0477 1.599 1.8018 0.71525 1.4999 1.9595 2.1536 4.0992 2.1536 1.7048 0 2.159 0.8845 1.2593 2.4522-0.52471 0.91425-0.55647 1.3398-0.17538 2.3494 0.39193 1.0384 0.32427 1.6373-0.42865 3.7947-0.49173 1.409-0.89405 2.8239-0.89405 3.1444 0 0.82048-0.88509 1.0686-3.8119 1.0686-1.4 0-2.6464 0.16325-2.7697 0.36279-0.12332 0.19953-1.102 0.48352-2.1749 0.63108-1.5477 0.21287-2.0438 0.47261-2.4013 1.2572-0.91204 2.0017-0.33773 3.7533 1.2306 3.7533 0.60028 0 0.72052 0.34298 0.72052 2.0551 0 2.5169 0.69076 5.073 1.6692 6.1767 0.40292 0.45451 0.73258 1.2683 0.73258 1.8085 0 1.0141-1.7312 3.9251-2.6704 4.4902-0.31251 0.18804-0.53196 1.0422-0.53196 2.0704 0 3.0076 1.7248 4.766 7.471 7.6168 2.6626 1.321 5.1497 2.6627 5.5268 2.9816 0.50159 0.42423 1.4548 0.5394 3.551 0.42907 5.6024-0.29488 8.8968-0.0858 12.244 0.77692 4.2478 1.0949 4.974 1.4852 7.4186 3.9869 2.0633 2.1115 3.3515 2.5248 5.045 1.6185zm152.46-25.947c1.682-1.0237 3.1355-2.8342 3.1996-3.9854 0.0162-0.28884-0.45133-1.541-1.0387-2.7826l-1.068-2.2575 1.168-3.4219c1.058-3.0994 2.4608-5.2232 3.4501-5.2232 0.20013 0 0.8169 1.0358 1.3706 2.3017 1.1778 2.6928 2.2588 3.6815 4.0388 3.6938 1.5274 0.0102 2.1134-0.83711 2.1204-3.067 2e-3 -0.84007 0.27067-2.5181 0.59568-3.729 0.32502-1.2109 0.59307-2.8889 0.59569-3.729 5e-3 -1.6186 0.58054-3.0759 1.2147-3.0759 0.48874 0 2.3927 3.0008 2.3927 3.7712 0 0.32162 0.191 0.70282 0.42445 0.84709 0.66353 0.41009 2.6795-0.59616 2.9024-1.4487 0.11045-0.42229 0.40223-0.7678 0.64845-0.7678 0.69397 0 1.2231 1.8145 1.503 5.1545 0.17369 2.0722 0.52393 3.4674 1.0914 4.3475 0.45959 0.71279 0.94957 1.2982 1.0888 1.301 0.34446 6e-3 3.5496-4.9459 3.5496-5.4849 0-0.23673 0.6755-1.6292 1.5011-3.0944 1.1725-2.0808 1.7505-2.716 2.6404-2.9018 1.0291-0.21481 1.1154-0.35752 0.89178-1.4754-0.38475-1.9237-3.4475-6.9738-5.177-8.5363-1.5527-1.4028-1.5588-1.4203-1.3608-3.8874 0.10945-1.363 0.44317-2.8693 0.74168-3.3474 0.47818-0.76567 0.44869-0.94025-0.24781-1.4668-0.43483-0.32869-0.94126-0.60338-1.1254-0.61037-0.18413-7e-3 -1.2649 0.95051-2.4018 2.1278-1.1368 1.1773-2.4635 2.3498-2.9481 2.6056-0.69969 0.36924-0.93708 0.95896-1.1525 2.8631-0.35426 3.1312-0.93316 3.1224-4.0019-0.0611-3.6055-3.7403-4.2561-4.3458-4.6689-4.3458-0.20907 0-0.90433-0.37328-1.545-0.8295-1.5299-1.0894-2.5022-0.86728-2.7617 0.63083-0.17526 1.0119-0.64408 1.4096-3.0943 2.6251-1.5883 0.78787-3.2221 1.7351-3.6308 2.1049-0.86255 0.78059-2.8003 0.8747-4.2655 0.20713-0.5617-0.25592-1.1192-0.36732-1.239-0.24754-0.11971 0.11983-0.32528 1.5-0.45666 3.0672-0.22696 2.7071-0.28877 2.8494-1.2375 2.8494-0.54924 0-1.1986-0.26538-1.443-0.58973-0.54249-0.71984-2.5564-0.76128-11.152-0.22943-0.16512 0.0102-0.30022 0.45827-0.30022 0.99567 0 0.53742-0.15934 1.0756-0.35411 1.196-0.19475 0.12034-0.47854 1.0487-0.63065 2.063l-0.27653 1.8441-1.671-0.16995c-0.91907-0.0935-1.962-0.30064-2.3176-0.46034-0.5488-0.24646-0.68821 0.13193-0.92172 2.5016-0.23453 2.3802-0.4234 2.8891-1.2806 3.4507-0.6408 0.41988-1.4042 0.57125-2.1048 0.41738-1.1851-0.26029-1.3608-0.0508-2.6339 3.1402-0.76631 1.9208-0.81783 5.5918-0.0871 6.1984 0.29226 0.24255 1.7783 0.82499 3.3024 1.2943 4.6789 1.4408 4.9726 1.6746 4.9726 3.9567 0 1.7628 0.1407 2.0781 1.3329 2.9875 1.1033 0.84156 1.7067 1.0001 3.5026 0.92022l2.1696-0.0964 0.20436-2.2008c0.27146-2.9235 0.52019-3.2307 2.5142-3.1057 1.5828 0.0992 1.6876 0.035 2.1177-1.2966 0.44162-1.3674 0.8186-1.6527 4.2814-3.24 1.278-0.58579 1.62-0.26093 3.583 3.4031 1.2401 2.3146 1.4008 4.224 0.47452 5.6376-1.3075 1.9955 0.25448 2.3389 3.0101 0.6617zm-20.831-25.376c0.69707-1.8438 1.2435-3.7792 1.2435-4.4047 0-0.3548 0.36026-0.75945 0.80058-0.8992s0.80058-0.40995 0.80058-0.60044 0.36026-0.46068 0.80059-0.60043c1.2057-0.38267 0.96569-1.4694-0.60045-2.719-1.7819-1.4218-1.809-2.6081-0.0847-3.6962 0.8563-0.54031 1.2961-1.1418 1.3171-1.8013 0.11147-3.4905 0.11559-3.5008 1.7057-4.2596 1.1372-0.54261 1.721-1.1777 2.2437-2.4407 0.65217-1.5758 0.65709-1.7827 0.0639-2.6879-0.35341-0.53937-0.64256-1.3072-0.64256-1.7063 0-1.302-1.1642-2.5049-2.4244-2.5049-0.91134 0-1.1782 0.18133-1.1782 0.80058 0 0.58919-0.26686 0.80058-1.0106 0.80058-1.161 0-1.9706-1.5524-1.6591-3.1815 0.11896-0.6224-0.16406-1.4997-0.77286-2.3957-1.2702-1.8693-1.2117-3.1549 0.27793-6.1058 1.0898-2.1589 1.1619-2.4963 0.60043-2.8105-0.35093-0.19639-0.63805-0.6137-0.63805-0.92734 0-1.551-7.3388-3.702-13.811-4.048l-5.0028-0.26746v1.6155c0 1.7374-0.49094 2.0918-2.9147 2.1037-0.69069 0.0038-1.2123 0.27142-1.374 0.70598-0.14334 0.38528-0.58441 1.1508-0.98014 1.7012-0.39574 0.5504-0.94831 2.1716-1.2279 3.6026l-0.50838 2.6019-1.6458 0.12034c-1.2032 0.08807-1.95 0.43789-2.7768 1.3009-0.62208 0.64932-1.3732 1.1806-1.6692 1.1806s-0.64179 0.2702-0.76852 0.60044-0.46255 0.60044-0.74629 0.60044c-0.61761 0-3.0011 3.5962-3.0011 4.528 0 0.36035-0.54039 0.93464-1.2009 1.2762-1.0076 0.52106-1.2011 0.86093-1.2024 2.1118-8.3e-4 0.84398-0.38432 2.0987-0.88382 2.8918-1.4802 2.3503-1.9167 3.2626-1.9167 4.0056 0 1.0799 4.417 4.9586 6.2836 5.5179 0.88824 0.26613 2.4096 0.48386 3.3808 0.48386 0.97123 0 2.1212 0.24863 2.5555 0.55253 0.94347 0.66021 3.455 1.0358 8.5953 1.2855 2.0915 0.10159 4.163 0.33901 4.6034 0.52763 2.7822 1.1918 6.0655 2.44 6.4154 2.439 0.22607-6.4e-4 1.7572 1.2572 3.4025 2.7951 3.2903 3.0756 4.8999 3.6286 5.5507 1.9072zm15.254-5.4481c0-0.62974 0.11684-1.9973 0.25959-3.0389 0.24467-1.785 0.31943-1.8811 1.301-1.6717 3.5267 0.75241 3.685 0.75191 4.5663-0.0145 0.48302-0.42006 2.1842-1.3774 3.7803-2.1275 2.3304-1.0951 2.9021-1.54 2.9021-2.2586 0-0.49215 0.2884-1.1832 0.64087-1.5357 0.58763-0.58762 0.86196-0.51852 3.3024 0.83182 1.4638 0.80997 3.2019 2.1213 3.8624 2.914 1.6884 2.0265 4.1731 4.4435 4.5679 4.4435 0.18282 0 0.45468-1.0808 0.60414-2.4018 0.23433-2.0712 0.42048-2.4787 1.3526-2.9608 0.5945-0.30748 1.6528-1.2707 2.3516-2.1405 0.69889-0.8698 1.8341-1.8148 2.5227-2.1 0.91359-0.37842 1.1783-0.69247 0.97949-1.1619-0.14988-0.35382-0.36144-1.054-0.47016-1.5561-0.10871-0.50202-0.58091-1.1088-1.0493-1.3483-0.46841-0.23952-1.5137-1.0681-2.3229-1.8412-1.3937-1.3317-1.5884-1.396-3.6965-1.2212-1.276 0.10583-2.5364 0.46609-2.9546 0.84456-0.40112 0.36302-1.0794 0.59605-1.5073 0.51785s-1.9861-0.26821-3.4627-0.42223c-2.1418-0.22343-2.9917-0.526-4.2031-1.4963-1.3621-1.091-4.3283-2.6507-6.2278-3.2747-0.38858-0.12764-0.87949-0.68702-1.0909-1.2431-0.23761-0.62499-0.69607-1.011-1.2008-1.011-1.2127 0-2.4025-2.2285-2.4043-4.5033-8.4e-4 -1.0458-0.18164-1.9014-0.4018-1.9014s-0.40029-0.26176-0.40029-0.58171c0-0.31993-0.76556-0.96236-1.7012-1.4276-4.6758-2.325-5.5937-2.9221-6.3179-4.1097-0.43137-0.70747-0.78499-1.8718-0.7858-2.5873l-1e-3 -1.3009h-2.1875c-1.7778 0-2.2678 0.14993-2.616 0.80058-0.29745 0.5558-0.30176 1.0373-0.0141 1.5748 0.5962 1.114 0.51001 2.3057-0.18606 2.5728-0.33024 0.12673-0.60045 0.55588-0.60045 0.95367 0 0.3978-0.53473 1.7995-1.1883 3.1148-1.4624 2.9432-1.4876 3.6772-0.19162 5.5869 0.75355 1.1104 0.95673 1.802 0.77393 2.6343-0.28172 1.2827 0.35998 2.7767 1.1927 2.7767 0.3072 0 0.61608-0.4053 0.68643-0.90066 0.10896-0.76702 0.33581-0.88235 1.5289-0.7773 1.5651 0.13778 2.802 1.3005 2.802 2.634 0 0.47702 0.29866 1.2937 0.66367 1.8148 0.6192 0.88404 0.61711 1.0845-0.0312 2.9915-0.58982 1.7352-0.93191 2.1452-2.2648 2.7144-1.6273 0.69497-1.5808 0.58865-1.7467 3.9878-0.06 1.2287-0.7767 2.2138-1.861 2.5579-1.1479 0.36435-0.92604 1.2265 0.63658 2.4733 1.6378 1.3068 1.9397 3.0946 0.59464 3.5215-0.44351 0.14077-0.68844 0.44679-0.54428 0.68006 0.17453 0.28238 1.1462 0.31808 2.9079 0.10682 3.7656-0.45163 6.0927-0.31539 6.8066 0.39846 1.0359 1.0358 2.0438 0.77406 2.0438-0.53084zm-12.009-37.978c0-0.28429-0.21513-0.86138-0.47806-1.2824-0.36721-0.58799-0.36919-1.0044-9e-3 -1.7959 0.42463-0.93195 0.69017-1.0312 2.7797-1.0392 2.4161-0.0087 4.5787-0.81412 6.6189-2.4636 0.64003-0.51746 1.9054-0.98632 3.0022-1.1124l1.896-0.21793 0.27798-2.802c0.16159-1.6292 0.11971-2.9612-0.10007-3.1823-0.4994-0.50236-0.48464-2.1085 0.0222-2.4218 0.22016-0.13607 0.4003-1.494 0.4003-3.0177v-2.7703l-1.5633-0.79755c-1.9849-1.0126-3.2402-2.6009-3.2402-4.0997 0-1.806-2.1044-4.1363-4.419-4.8934-2.7609-0.90306-3.1865-0.83515-3.1865 0.50846 0 0.62792-0.41127 1.7537-0.91394 2.5018-0.78284 1.165-1.1704 1.3756-2.702 1.4676-1.7585 0.10565-1.8231 0.06433-3.9137-2.5018-1.1691-1.4351-2.3045-2.6092-2.5231-2.6092-0.21854 0-1.0601-0.45033-1.87-1.0007-1.9672-1.3368-2.7617-1.2865-3.0872 0.19555-0.31856 1.4504-0.46028 1.5469-2.7297 1.8579-1.7147 0.23503-1.8725 0.16826-3.5531-1.5042-2.018-2.0082-8.3894-5.9532-9.6148-5.9532-0.4531 0-1.2235 0.43127-1.712 0.95837-0.81492 0.87931-0.84348 1.0647-0.34613 2.2476 0.88201 2.0977 0.72056 2.7984-0.64472 2.7984-0.76325 0-1.3345 0.27604-1.6007 0.77347-0.22768 0.42541-0.75504 0.88173-1.1719 1.014-1.29 0.40944-1.8475 2.3765-1.2294 4.3378 0.29127 0.92422 0.69742 1.9033 0.90256 2.1757 0.61435 0.81578-0.0125 1.7059-1.2051 1.7118-2.7734 0.01362-2.9147 0.19056-2.9147 3.6518 0 2.6849 0.15142 3.4035 1.0007 4.7489 1.0411 1.6493 1.2882 2.802 0.60043 2.802-0.22016 0-0.40029 0.34963-0.40029 0.77696s0.18013 0.88829 0.40029 1.0244 0.4003 0.95729 0.4003 1.8249c0 0.86765-0.18014 1.5775-0.4003 1.5775s-0.40029 0.36472-0.40029 0.81049c0 1.503 2.9424 2.0589 5.1276 0.96886 1.3854-0.69112 2.8783-0.25203 2.8783 0.84654 0 0.32794 0.46264 0.77215 1.0281 0.98713 0.56544 0.21498 1.6225 1.0211 2.3489 1.7914 0.83851 0.88907 1.6937 1.4005 2.3417 1.4005 1.8571 0 2.2872-0.38438 2.2872-2.0443v-1.5583l2.9021 0.02514c5.3462 0.0464 9.2102 0.64079 12.838 1.9748 2.7125 0.99755 3.615 1.52 3.8942 2.2546 0.34885 0.91756 0.39615 0.92818 1.1727 0.26328 0.44504-0.38106 0.80917-0.92546 0.80917-1.2098zm-49.136-20.556c0.38528-0.67693 0.70051-1.4615 0.70051-1.7436 0-0.65752 5.0254-1.1456 8.0888-0.78551 1.4322 0.16833 2.3062 0.10629 2.4807-0.17609 0.15653-0.25328 0.77815-0.33423 1.4834-0.19318l1.214 0.24279-0.27729-1.5569c-0.15251-0.85627-0.43558-1.728-0.62903-1.9371-0.19347-0.20915-0.35175-0.73676-0.35175-1.1725 0-1.0432 0.87957-3.4509 1.2607-3.4509 0.16459 0 0.78516-0.45033 1.3791-1.0007 0.59389-0.5504 1.4031-1.0007 1.7983-1.0007 1.038 0 1.1613-0.42551 0.63396-2.1862-0.29128-0.97251-1.3398-2.4513-2.7703-3.9073-1.2659-1.2884-2.3017-2.516-2.3017-2.7279 0-0.2119-0.25792-0.38528-0.57318-0.38528-0.31524 0-0.9457-0.52317-1.401-1.1626-1.1515-1.6171-1.0815-3.8332 0.17289-5.4778 0.95753-1.2554 1.2774-2.5565 0.75661-3.0773-0.13427-0.13427-0.89982 0.16966-1.7012 0.67539-0.80141 0.50573-1.8463 1.0429-2.322 1.1937-0.47567 0.15083-1.139 0.69256-1.474 1.2039-0.78344 1.1957-3.224 1.6095-5.6562 0.95896-1.574-0.42098-1.9763-0.39427-2.9785 0.19776-0.6373 0.37647-1.7958 0.68448-2.5744 0.68448s-1.5126 0.15681-1.6311 0.34846c-0.11846 0.19166-1.3107 0.59146-2.6494 0.88846-3.2123 0.71265-3.5575 1.1679-2.4199 3.192 0.99714 1.7742 0.86723 3.6796-0.29784 4.3678-0.41622 0.24589-0.51765 0.51162-0.26829 0.70289 0.73232 0.56174 1.4324 2.2994 1.5279 3.7923 0.0519 0.8106 0.22451 1.604 0.38367 1.7632 0.15915 0.15916 0.28937 0.8691 0.28937 1.5776 0 0.93244 0.27641 1.4694 1.0007 1.944 0.87714 0.57472 1.0007 0.94257 1.0007 2.9784 0 2.6192 0.50959 3.3249 3.4754 4.8132 0.92074 0.46202 1.787 1.0227 1.925 1.246 0.52775 0.8539 2.0051 0.40076 2.7055-0.82983zm49.769-8.6498c1.0446-1.5556 1.5547-4.8786 0.95196-6.2014-0.23858-0.52363-0.95232-1.3006-1.586-1.7265-1.2377-0.83186-1.5862-1.6439-1.5948-3.7162-5e-3 -1.1767 0.0759-1.2714 0.7688-0.90066 0.42584 0.22791 1.5517 0.42 2.5018 0.42687 1.1185 0.0081 2.292 0.36017 3.3287 0.99868 1.2758 0.78581 2.1379 0.9866 4.2429 0.98824 2.2691 0.0017 2.8902 0.17042 4.4032 1.1956 1.7952 1.2165 3.3124 1.5368 3.7703 0.79594 0.42206-0.68289-2.2116-3.3232-4.3802-4.3913-1.6703-0.82268-2.0558-1.2114-2.1665-2.185-0.0741-0.65134-0.56945-1.7009-1.1008-2.3324s-0.96609-1.2771-0.96609-1.4347c0-0.15761-0.76555-0.49974-1.7012-0.7603-2.2244-0.61944-2.2976-0.68811-3.7027-3.4756-0.68178-1.3525-1.6705-2.6503-2.2872-3.0022-0.59751-0.34093-1.6365-1.3241-2.3088-2.1849-1.4149-1.8115-6.6937-6.949-7.6866-7.4807-1.7325-0.92788-4.6114 0.09712-4.4026 1.5675 0.0742 0.52203-0.30067 1.4023-0.90065 2.1154-1.3715 1.63-1.2992 2.2413 0.44366 3.7479 1.7804 1.539 1.6199 2.3771-0.58135 3.0366-1.6328 0.4892-1.5117 0.52798-5.6934-1.8231-0.55041-0.30946-1.5411-0.80792-2.2016-1.1077-0.66048-0.29978-1.5611-0.7362-2.0015-0.96984-0.44032-0.23363-1.4745-0.63814-2.2982-0.89889-1.2754-0.40375-1.6738-0.37002-2.685 0.22729-1.4346 0.84742-2.3673 2.7653-1.6794 3.4532 0.75585 0.75585 0.52606 1.4134-0.75926 2.1727-0.66955 0.39551-1.3242 1.1712-1.4548 1.7239-0.13058 0.55262-0.50683 1.315-0.8361 1.6942-0.43736 0.50366-0.54137 1.2586-0.38597 2.802 0.18729 1.8602 0.0936 2.2393-0.78447 3.1727-0.82072 0.87251-0.92006 1.2041-0.56141 1.8743 0.23965 0.44781 0.79253 0.92744 1.2286 1.0658s0.7515 0.39911 0.70093 0.57933c-0.0505 0.18023 0.43976 0.82477 1.0896 1.4323l1.1815 1.1046 0.56855-0.85628c0.89622-1.3498 2.7604-1.1073 5.6006 0.72841 1.3485 0.87158 3.0331 1.8853 3.7436 2.2527 0.7105 0.36742 1.9632 1.388 2.7838 2.2681 1.4324 1.5361 1.5647 1.5891 3.3096 1.3275 1.681-0.25209 1.837-0.37614 2.0762-1.6511 0.2109-1.1242 0.43894-1.3786 1.236-1.3786 0.53757 0 1.6401 0.45033 2.4501 1.0007 0.80999 0.5504 1.6832 1.0007 1.9405 1.0007s1.4248 1.1794 2.5943 2.621c1.9645 2.4213 2.2334 2.6119 3.5294 2.5018 1.0608-0.09009 1.6123-0.43113 2.262-1.3985zm-36.154-14.681c0.68655-0.77078 0.8257-1.3797 0.73967-3.237-0.0717-1.5474 0.0808-2.5031 0.47134-2.9535 0.3175-0.36619 0.68652-1.1161 0.82002-1.6665s0.81636-1.3238 1.5175-1.7186c0.96492-0.54339 1.1622-0.83041 0.81176-1.1809-0.70871-0.70871-0.55305-2.0819 0.36885-3.2539 0.80538-1.0239 0.81084-1.1207 0.17191-3.0444-0.40576-1.2216-1.1501-2.3875-1.9326-3.0272-0.69998-0.57217-1.59-1.298-1.9778-1.613-0.38779-0.31497-1.3391-0.57267-2.1141-0.57267-0.88318 0-1.495-0.22408-1.6394-0.60044-0.25968-0.67671-1.5684-0.8113-1.9461-0.20015-0.13606 0.22016-0.59702 0.40029-1.0244 0.40029-0.42732 0-0.77695 0.24768-0.77695 0.5504 0 0.30272-0.55209 0.66082-1.2269 0.79577-0.67476 0.13495-1.7694 0.78793-2.4325 1.4511-0.66313 0.66313-1.3269 1.2062-1.4751 1.2068s-0.62874 0.53743-1.0679 1.1929c-0.96261 1.4367-1.9373 1.8627-5.6062 2.4502-4.8027 0.76901-6.1624 0.85199-7.3243 0.44694-0.82002-0.28586-1.3198-0.24991-1.8429 0.13254-0.65903 0.48189-0.66767 0.617-0.10583 1.6531 0.33654 0.62057 1.023 1.9971 1.5255 3.059 0.50248 1.0619 1.1003 2.0479 1.3284 2.1912 0.22815 0.14332 2.0782 0.20596 4.1111 0.1392 3.6465-0.11974 3.7112-0.10541 4.8035 1.0637 1.8502 1.9804 6.4883 2.4529 7.9054 0.80548 0.44647-0.51907 1.5631-1.3354 2.4814-1.814 0.91829-0.47864 2.0486-1.1052 2.5118-1.3924 0.70773-0.43876 0.90314-0.42625 1.2241 0.07835 0.65501 1.0297 0.43387 2.4032-0.60651 3.7672-1.2196 1.5989-1.2829 3.3716-0.17109 4.7851 1.0213 1.2984 1.4012 1.3146 2.4783 0.10534zm21.319-10.837c1.5969-0.66724 1.5384-1.2595-0.23967-2.4239-1.0645-0.69708-1.1954-0.97619-1.012-2.1589 0.11583-0.74709 0.59145-1.7638 1.057-2.2594 0.55488-0.59064 0.69601-0.99413 0.40962-1.1711-0.2403-0.14852-0.33349-0.4374-0.20705-0.64196 0.28669-0.46389-1.7045-3.0284-4.7201-6.0792-1.4459-1.4628-2.3017-2.6673-2.3017-3.2397 0-0.55338-0.48388-1.2689-1.2323-1.8222-0.6778-0.50111-1.2762-0.85022-1.3298-0.77579-0.0535 0.074433-0.56629 0.95489-1.1393 1.9566-1.3347 2.3332-5.0693 5.1838-6.7912 5.1838-1.313 0-2.717 0.95557-2.717 1.8493 0 0.28837 0.4053 0.73329 0.90066 0.98871 1.6003 0.82516 2.7018 2.0805 3.1066 3.5406 0.62966 2.2709 0.94219 2.5934 1.921 1.9821 0.70451-0.43997 0.94733-0.41498 1.5863 0.16325 0.41493 0.37551 1.1628 0.68274 1.6618 0.68274 0.49908 0 1.3855 0.32881 1.9699 0.73069 0.58438 0.40188 1.693 0.97886 2.4635 1.2822 0.77056 0.30332 2.1035 1.0553 2.9622 1.6711 1.8119 1.2994 1.8304 1.3021 3.6514 0.54125z" stroke-width="1.2509"/>
 </g>
</svg>
