<?xml version="1.0" encoding="UTF-8" standalone="no"?>
<!-- Created with Inkscape (http://www.inkscape.org/) -->

<svg
   width="204.48"
   height="254.4"
   version="1.1"
   viewBox="0 0 204.48 254.4"
   id="svg1"
   sodipodi:docname="potosi-mapa-blanco1.svg"
   inkscape:version="1.3.2 (091e20e, 2023-11-25, custom)"
   xmlns:inkscape="http://www.inkscape.org/namespaces/inkscape"
   xmlns:sodipodi="http://sodipodi.sourceforge.net/DTD/sodipodi-0.dtd"
   xmlns="http://www.w3.org/2000/svg"
   xmlns:svg="http://www.w3.org/2000/svg">
  <defs
     id="defs1" />
  <sodipodi:namedview
     id="namedview1"
     pagecolor="#ffffff"
     bordercolor="#000000"
     borderopacity="0.25"
     inkscape:showpageshadow="2"
     inkscape:pageopacity="0.0"
     inkscape:pagecheckerboard="0"
     inkscape:deskcolor="#d1d1d1"
     showgrid="false"
     inkscape:zoom="3.191824"
     inkscape:cx="102.13596"
     inkscape:cy="127.2"
     inkscape:window-width="1920"
     inkscape:window-height="1001"
     inkscape:window-x="-9"
     inkscape:window-y="-9"
     inkscape:window-maximized="1"
     inkscape:current-layer="svg1" />
  <g
     id="g1">
    <path
       d="m58.56 248.3c-4.4961-0.28566-5.0258-0.43302-6.24-1.7358-0.528-0.56654-1.3538-1.1256-1.8351-1.2424-0.61535-0.14928-0.9298-0.47208-1.0593-1.0874-0.10131-0.48132-0.3195-1.1252-0.48487-1.4308-0.55081-1.0179-0.35842-4.07 0.31013-4.9199 0.33594-0.42708 0.70945-1.4938 0.83003-2.3705s0.31508-1.594 0.43222-1.594 0.40263-0.30364 0.63439-0.67476c0.52224-0.83624 0.0666-2.1606-1.2855-3.7364-0.922-1.0745-0.9914-1.431-0.60527-3.1089 0.1778-0.77258 0.03874-1.1961-0.71235-2.1696-0.88793-1.1508-0.92418-1.3219-0.74598-3.52 0.10302-1.2707 0.27716-2.9171 0.38698-3.6586 0.16215-1.0949 0.06832-1.5152-0.49932-2.2368-0.63446-0.80659-0.67872-1.1176-0.47944-3.3688l0.21955-2.4802-1.6794-1.6187c-0.92368-0.89028-2.0885-1.8302-2.5884-2.0888-1.1273-0.58296-1.3762-1.5205-1.1427-4.3051 0.16817-2.0059 0.0613-2.9042-1.0461-8.7933-0.28829-1.5331-1.3351-3.9715-2.2299-5.1942-0.60442-0.82592-0.65256-1.414-0.71252-8.7044-0.0543-6.6027-0.14227-7.8997-0.56563-8.3396-0.99181-1.0306-3.7553-5.3236-4.7389-7.3617-0.55211-1.144-1.4918-2.656-2.0883-3.36s-1.5051-2.0359-2.0193-2.9597l-0.93484-1.6797-2.1669-3.3e-4c-1.7976-2.7e-4 -2.3812-0.14214-3.4242-0.8324-2.1743-1.4389-2.8461-3.293-1.7567-4.8483 0.57072-0.81482 0.65317-1.8768 0.30958-3.9875-0.23173-1.4235-0.19838-1.5292 0.59637-1.8914 0.463-0.21096 0.84182-0.49284 0.84182-0.62641s0.73901-1.0514 1.6422-2.0397c0.90323-0.98829 1.5872-1.8348 1.52-1.8812-0.06724-0.0464-1.1302-0.56205-2.3622-1.146-1.232-0.58392-2.744-1.3376-3.36-1.6748s-1.9876-1.0476-3.0479-1.5787c-1.5529-0.77772-2.0975-1.2672-2.8-2.5169-1.1796-2.0985-1.1307-3.2693 0.2056-4.9233 1.658-2.0521 1.9852-2.8087 1.3999-3.2367-0.70952-0.51881-1.5176-3.1657-1.5176-4.9709 0-1.399-0.09653-1.6175-0.88-1.9916-0.78651-0.37562-0.89014-0.61339-0.97539-2.238-0.08281-1.578-6e-3 -1.8656 0.58276-2.1806 0.89059-0.47663 3.5884-1.1663 5.5926-1.4297 2.294-0.30147 2.9972-0.73261 3.2314-1.9814 0.11062-0.58963 0.32879-1.151 0.48484-1.2474 0.43626-0.26963 0.33708-1.0899-0.19628-1.6233-0.62098-0.62097-0.65203-2.9943-0.03918-2.9943 0.24245 0 0.60612-0.19919 0.80817-0.44263 0.45702-0.55068-0.15232-0.83737-1.7798-0.83737-0.85158 0-1.3475-0.24815-2.0785-1.04-0.52801-0.572-1.3809-1.4875-1.8954-2.0345-1.7072-1.8151-1.0072-4.1743 1.5487-5.2195 0.68785-0.28131 1.111-0.71341 1.2401-1.2665 0.10782-0.46172 0.65943-1.3435 1.2258-1.9595 1.0373-1.1282 3.4368-4.277 4.3893-5.76 1.7749-2.7633 3.0631-2.9573 4.3408-0.65352 0.74105 1.3361 1.2082 1.7456 2.9599 2.5947 2.161 1.0475 5.5426 2.7192 6.4338 3.1805 0.28258 0.14628 1.3699 0.18833 2.4162 0.09345 1.8294-0.16588 1.9448-0.13101 3.0062 0.90827 1.6974 1.662 3.0401 3.2616 3.9571 4.7143 0.45908 0.72724 1.0489 1.3222 1.3107 1.3222s0.47599 0.14053 0.47599 0.31229c0 0.45942 5.9974 3.3498 8.6614 4.1743 1.5391 0.47635 2.3479 0.89877 2.4471 1.2781 0.26892 1.0284 4.5512 1.3624 5.576 0.43498 0.70115-0.63453 0.49579-1.0965-1.3536-3.0451-2.0136-2.1216-2.5284-3.1154-2.5297-4.8838-0.0011-1.422 0.11928-1.6804 1.2832-2.7549 1.0967-1.0125 1.5711-1.2157 3.2469-1.3908 3.8505-0.40246 4.3209-0.31769 5.7994 1.0451 1.1 1.014 1.527 1.2176 2.2592 1.0777 0.57606-0.11012 1.4624 0.08948 2.4487 0.55142 1.871 0.87632 3.4327 0.71079 2.8885-0.30615-0.47608-0.88957-0.414-3.5199 0.08763-3.7124 0.58381-0.22403 0.2896-2.35-0.45723-3.3039-0.69891-0.89277-0.7831-2.3644-0.16462-2.8777 0.27946-0.23193 1.1203-0.28735 2.373-0.15642 1.662 0.17371 2.1047 0.10114 3.0872-0.50607 0.63083-0.38988 1.147-0.81801 1.147-0.9514 0-0.60217 1.8886-0.98527 4.8573-0.98527 3.4832 0 4.653 0.41137 5.9849 2.1046 0.33698 0.4284 1.0839 0.97704 1.6599 1.2192 0.9354 0.39331 1.1524 0.37617 2.0326-0.16056 1.1398-0.69505 2.562-0.76758 3.7054-0.18898 0.69613 0.35229 1.1116 0.28406 3.2-0.52548 3.6435-1.4124 3.4876-1.2934 4.1523-3.1688 0.27084-0.76419 0.48278-0.88 1.6104-0.88 1.3964 0 3.4566 0.94264 5.6218 2.5722l1.3045 0.98178 1.0135-0.57698c0.70724-0.40263 1.0162-0.81872 1.0226-1.377 0.0109-0.95565 0.62462-1.7298 2.5549-3.2228 2.3177-1.7926 4.1065-2.8625 5.1275-3.0667 0.88406-0.17681 0.95251-0.29201 0.95251-1.6031 0-1.0782 0.25925-1.7976 1.0951-3.0387 0.6023-0.89436 1.0246-1.8098 0.93847-2.0343-0.0862-0.22448-1.0109-0.8635-2.0551-1.42-1.0442-0.55653-1.8985-1.1918-1.8985-1.4117 0-0.29981-0.70847-0.36592-2.833-0.26434-2.7596 0.13194-2.8383 0.11584-3.0356-0.62145-0.34552-1.2908-0.23559-1.7959 0.42866-1.9696 0.77884-0.20367 0.92101-1.8273 0.16-1.8273-0.60463 0-0.67637-2.415-0.08-2.6933 0.30877-0.14409 0.29965-0.23228-0.04-0.38667-0.242-0.11-0.72029-0.48029-1.0629-0.82286-0.53832-0.53833-0.6089-0.99092-0.52-3.3348 0.0948-2.4992 0.0527-2.7218-0.53713-2.8377-1.7184-0.33782-2.4-0.37198-2.4-0.12028 0 0.15159-0.72 0.27562-1.6 0.27562-1.1457 0-1.6 0.12517-1.6 0.44082 0 0.24245-0.216 0.62008-0.48 0.83918-0.264 0.2191-0.48 0.74073-0.48 1.1592 0 0.63724-0.1609 0.76082-0.9906 0.76082-0.87924 0-2.6888-0.94911-3.1953-1.6759-0.10225-0.14672-0.75025-0.5677-1.44-0.93552-1.5738-0.83924-1.6388-0.94846-1.8993-3.1932-0.11786-1.0155-0.41691-2.0145-0.66456-2.22-0.24764-0.20553-0.45026-0.70756-0.45026-1.1156s-0.144-0.83093-0.32-0.9397-0.32-0.88056-0.32-1.7151c0-1.6737-0.57913-3.2385-1.2-3.2424-0.58162-0.0036-0.52017-2.2165 0.0678-2.4421 0.75202-0.28858 0.93064-1.3791 0.3339-2.0385-0.29478-0.32573-0.61183-1.1579-0.70455-1.8492l-0.1686-1.257 2.1601-0.54259c1.188-0.29842 2.565-0.75197 3.0598-1.0079 0.49487-0.25591 1.4024-0.46528 2.0168-0.46528s1.2018-0.13728 1.3056-0.30507c0.26944-0.43597-2.2378-1.0812-4.331-1.1146-2.3652-0.03771-3.2916-0.69796-4.4654-3.1824-1.5429-3.2655-1.3186-4.0379 1.1725-4.0379 0.9561 0 3.1367-0.15293 4.8458-0.33985 3.4433-0.3766 5.1095-1.1625 5.9628-2.8126 0.3062-0.59211 1.0437-1.1606 2.0889-1.6103 0.88861-0.38226 1.6156-0.82448 1.6156-0.98269 0-0.49436 1.9644-1.2945 3.178-1.2945 0.6378 0 1.4827 0.22627 1.8775 0.50282 0.67196 0.47066 0.78042 0.4502 1.6958-0.32 0.65564-0.55168 1.3591-0.82282 2.1346-0.82282 1.0102 0 1.4024-0.26243 3.0954-2.0712 1.0663-1.1392 2.342-2.536 2.835-3.104l0.89634-1.0328 1.1301 0.60862c0.66787 0.35967 1.4004 1.1385 1.7909 1.904 0.36341 0.71244 1.0118 1.6554 1.4409 2.0954s1.388 1.5822 2.131 2.5382l1.3508 1.7382 3.8035-0.14136 3.68 3.5373c2.024 1.9455 4.1606 3.7126 4.7479 3.9268 0.88012 0.32102 1.2538 0.7866 2.1252 2.6479 1.0392 2.2196 1.8897 3.0053 3.3019 3.0501 0.59522 0.01891 2.3936 2.5427 2.724 3.8227 0.14101 0.5463 0.79229 1.1215 2.0537 1.8138 2.7357 1.5014 3.3416 2.1731 3.2248 3.5751l-0.0976 1.1711-1.894 0.09758c-1.7417 0.08974-1.9508 0.02633-2.6008-0.78893-0.65118-0.81666-0.86263-0.88036-2.6838-0.80844-1.5232 0.06016-2.1748-0.06257-2.8392-0.53475-0.98026-0.69672-3.0046-1.321-4.2919-1.3237-0.76572-0.0016-0.83866 0.08429-0.61011 0.71822 0.14277 0.396 0.71309 1.008 1.2674 1.36 0.55429 0.352 1.0871 1 1.184 1.44 0.37472 1.7016 0.9296 2.2931 2.7085 2.887 0.968 0.32318 1.904 0.83579 2.08 1.1391s0.572 0.77758 0.88 1.0538c0.31152 0.27942 0.56 0.95563 0.56 1.524 0 0.81436 0.30135 1.2869 1.485 2.3289 0.81678 0.71896 1.5976 1.3072 1.7352 1.3072s0.41486 0.49912 0.61618 1.1091c0.43494 1.3179 0.134 3.9322-0.54159 4.7048-0.41392 0.47338-0.38773 0.61313 0.23081 1.2317 0.53663 0.53663 0.65364 0.93049 0.5068 1.706-0.10499 0.55458-0.22725 1.7283-0.27167 2.6083-0.0728 1.4415-0.15999 1.6097-0.88076 1.6975-3.0274 0.36895-6.3638 2.6104-6.4915 4.3612-0.0632 0.86638 0.12272 1.0389 2.4146 2.24 3.8815 2.0342 5.48 3.7553 5.2946 5.7002-0.10903 1.1433 0.0181 1.4242 1.177 2.6014 0.71457 0.72584 2.4571 1.9274 3.8723 2.6701 1.4152 0.74273 2.909 1.6417 3.3195 1.9978 1.601 1.3885 4.3503 1.6369 7.2136 0.65182 2.8785-0.99035 3.7078-0.87207 5.6693 0.8086 2.6255 2.2496 2.8107 2.4586 2.8107 3.1731 0 0.36835 0.3728 1.2184 0.82844 1.8889 0.81712 1.2025 0.88362 2.7694 0.11754 2.7694-0.62404 0-0.98466 1.6332-0.61077 2.7661 0.19493 0.59065 0.48904 1.0739 0.65358 1.0739 0.16453 0 0.8281 0.828 1.4746 1.84s1.3647 2.0303 1.596 2.2629c0.23132 0.23257 0.42059 0.62857 0.42059 0.88 0 0.25143 0.12412 0.45714 0.27582 0.45714s0.44352 0.828 0.64849 1.84c0.3556 1.7558 0.33931 1.8652-0.35582 2.3916-1.2385 0.93773-1.6131 1.4362-2.3024 3.064-0.67033 1.583-1.4886 2.8779-2.4847 3.9318-0.29623 0.31343-0.78079 0.93949-1.0768 1.3913-0.79404 1.2119-1.5937 1.0328-2.5311-0.56672-0.62074-1.0592-0.81453-1.8364-0.81786-3.28-2e-3 -1.0405-0.0931-2.223-0.20147-2.6277l-0.19709-0.73583-0.611 0.65583c-0.41169 0.4419-1.0132 0.65584-1.8438 0.65584-1.0791 0-1.2598-0.10972-1.4492-0.88-0.29703-1.2081-1.0965-2.3804-1.4671-2.1513-0.16827 0.10399-0.30594 1.0158-0.30594 2.0262 0 1.0285-0.17349 2.0106-0.39417 2.2313-0.22965 0.22964-0.40184 1.2915-0.41255 2.544-0.0274 3.2041-0.17662 3.392-2.5009 3.1491-2.5518-0.26672-3.1815-0.73079-3.6915-2.7205-0.25781-1.0059-0.59563-1.6388-0.87477-1.6388-0.41525 0-1.6482 2.3-2.1945 4.094-0.2532 0.83132 0.30817 3.5712 1.0363 5.0578 0.66144 1.3505 0.30808 2.4902-1.0281 3.316-1.0952 0.67686-1.0989 0.68726-0.6722 1.8664 0.23602 0.65218 0.72821 1.8338 1.0938 2.6258 0.81668 1.7694 0.84898 2.817 0.11869 3.8488-0.31755 0.44865-0.57188 1.4147-0.58743 2.2312-0.0266 1.3983-0.34395 4.2192-0.63871 5.678-0.15689 0.77654-1.8904 1.682-3.2203 1.682-0.74134 0-0.75031 0.0274-0.25569 0.78234 0.39964 0.60993 0.46309 1.1917 0.28789 2.64-0.12359 1.0217-0.33806 2.0017-0.4766 2.1777-0.35162 0.44672-0.47322 5.4838-0.17085 7.0777 0.23617 1.2449 0.19067 1.3619-0.82416 2.118-0.59077 0.44017-1.4492 0.88871-1.9077 0.99675-0.78964 0.18611-0.84498 0.33372-1.051 2.8035-0.11958 1.4339-0.36328 2.8796-0.54155 3.2127-0.1903 0.35557-0.23488 1.3946-0.10798 2.5162 0.15319 1.354 0.0973 2.0538-0.19197 2.4023-0.31534 0.37997-0.32468 0.67489-0.0411 1.2973 0.20188 0.44307 0.36705 1.2223 0.36705 1.7316s0.144 1.015 0.32 1.1238c0.50208 0.3103 0.37462 1.8092-0.20864 2.4537-0.38895 0.42979-0.56752 1.4089-0.67576 3.7052l-0.14712 3.1211 0.99576 0.72958c0.59843 0.43846 0.99576 1.0142 0.99576 1.443 0 0.89849 0.89669 1.4671 2.7043 1.7149 1.6555 0.22691 2.8117-9e-3 3.5215-0.71903 0.61962-0.61961 1.5224-0.34737 1.4238 0.42938-0.0392 0.3092 0.0419 0.96928 0.18039 1.4668 0.14798 0.53177 0.11129 1.1913-0.089 1.6-0.18742 0.38244-0.43944 1.0554-0.56005 1.4954-0.1206 0.44-0.36698 0.98445-0.54751 1.2099-0.61817 0.77197-2.151 4.0696-2.1522 4.6301-6.6e-4 0.308-0.1452 0.56-0.3212 0.56s-0.32511 0.324-0.33134 0.72c-6e-3 0.396-0.21714 1.08-0.46866 1.52-0.25153 0.44-0.46243 1.1709-0.46866 1.6242-0.0115 0.83616-0.98529 1.9558-2.0186 2.3208-0.31199 0.11024-0.64729 0.4557-0.7451 0.76769-0.0978 0.31199-0.38302 0.95026-0.63378 1.4184s-0.37901 1.0516-0.285 1.2966c0.2446 0.63741 3.2063 2.051 5.2711 2.5159 2.5395 0.57174 3.8866 1.2053 4.0722 1.9153 0.0893 0.34162 0.28964 0.62112 0.44511 0.62112s0.28268 0.69769 0.28268 1.5504c0 2.6053-0.014 2.6096-8.4252 2.6096-4.6232 0-7.2548-0.11607-7.2548-0.32 0-0.176-0.4752-0.32-1.056-0.32s-1.2177-0.1617-1.4154-0.35934c-0.26579-0.26579-0.61759-0.17546-1.3513 0.34698-0.86102 0.6131-1.2761 0.68403-3.1446 0.53739-1.184-0.0929-2.7689-0.17021-3.5221-0.17175-1.0814-2e-3 -1.5525-0.1928-2.24-0.90615-1.5963-1.6563-5.8266-6.3593-6.2851-6.9874-0.35955-0.49254-0.96678-0.65255-2.9589-0.77971l-2.5065-0.16001-0.0268-0.96c-0.0452-1.6166-0.44667-2.3669-1.5458-2.8885-0.57919-0.27484-1.5793-0.98174-2.2225-1.5709-0.65125-0.59652-1.6293-1.1359-2.2072-1.2172-0.57074-0.0803-1.2897-0.25533-1.5977-0.38898-0.50536-0.21929-0.56-7e-3 -0.56 2.1743 0 1.9385-0.15245 2.704-0.76973 3.865-0.63549 1.1952-0.78895 2.0152-0.88 4.7024-0.0941 2.7791-0.19839 3.3066-0.71314 3.6093-0.33158 0.19498-1.0074 0.68438-1.5017 1.0876-0.5013 0.40885-1.7207 0.88462-2.7571 1.0757-1.022 0.18846-2.1083 0.47058-2.4139 0.62694-0.30561 0.15635-0.78785 0.28427-1.0716 0.28427s-0.96974 0.19414-1.5243 0.43142c-1.9217 0.82216-4.2126 1.4917-5.0985 1.4902-1.1388-2e-3 -4.7102 1.1903-5.3903 1.7996-0.68168 0.61078-1.0348 2.7278-0.51037 3.0601 0.29273 0.18552 0.21014 0.5659-0.32927 1.5166-0.396 0.69791-0.72 1.6435-0.72 2.1014 0 1.7403-0.76247 2.5392-3.1794 3.3316-1.3306 0.43622-2.9187 1.2597-3.8323 1.987-1.0483 0.83464-1.8825 1.2421-2.5429 1.2421-1.3405 0-1.6519 0.71857-1.7476 4.0338-0.06591 2.2826-0.18393 2.83-0.68985 3.1999-0.33568 0.24546-0.84868 0.44628-1.14 0.44628-1.4773 0-4.5349 2.4215-5.4738 4.3351-0.68345 1.3928-3.4834 2.6638-6.3542 2.8843-2.8044 0.2154-7.8819 1.3453-8.7912 1.9564-0.67643 0.45454-2.1156 0.4695-8.1688 0.0849zm7.8338-1.2273c2.5117-0.94859 4.2395-1.323 7.6051-1.6479 3.6524-0.35265 5.9096-1.2445 6.3703-2.517 0.51251-1.4157 3.5443-3.945 5.6021-4.6737l1.8687-0.66171 0.34989-3.216c0.19244-1.7688 0.45294-3.3828 0.57888-3.5866s0.6627-0.37053 1.1928-0.37053c0.61502 0 1.6793-0.49716 2.9411-1.3739 1.0875-0.75567 2.8038-1.6425 3.8138-1.9708 2.4702-0.8028 2.7959-1.3868 3.2213-5.7753 0.20227-2.0868 0.64403-3.6715 1.1408-4.0921 0.8395-0.71088 4.3185-1.8279 5.6932-1.8279 0.69629 0 1.5455-0.21142 1.8872-0.46982s0.9287-0.4744 1.3046-0.48c0.37588-6e-3 1.0959-0.22529 1.6-0.4882 0.50412-0.26292 1.1705-0.47892 1.4809-0.48 0.31039-1e-3 0.81439-0.13047 1.12-0.28753 0.30561-0.15705 1.4831-0.45637 2.6167-0.66515 1.1449-0.21086 2.3539-0.65331 2.72-0.99538 0.36243-0.33867 0.94697-0.81955 1.299-1.0686 0.5555-0.39304 0.6544-0.88937 0.74905-3.7591 0.0646-1.9595 0.26753-3.5018 0.49812-3.7862 0.77894-0.96098 1.1528-2.3103 1.1528-4.1606v-1.8904l-1.2-0.20245c-0.66-0.11134-1.4492-0.27067-1.7537-0.35405-0.57685-0.15796-1.8463-2.6584-1.8463-3.6366 0-0.9537 0.80776-2.1849 2.1126-3.2202 0.68605-0.5443 1.3799-1.2246 1.542-1.5118 0.16203-0.2872 0.63979-0.86738 1.0617-1.2893 1.2058-1.2058 1.4626-2.1982 0.80345-3.1047-0.30786-0.42338-0.72227-0.77432-0.92092-0.77985-0.19865-6e-3 -0.54012-0.44205-0.75882-0.97005-0.21871-0.528-0.52418-0.96-0.67883-0.96-0.15464 0-0.28117-0.22107-0.28117-0.49126 0-1.057-0.99237-2.018-2.3147-2.2414-1.5247-0.25759-5.4591-1.8715-6.6947-2.7461-0.46717-0.3307-1.1358-0.60127-1.4858-0.60127-0.35001 0-0.71926-0.216-0.82056-0.48-0.19344-0.5041-1.65-0.66844-1.9287-0.21761-0.0892 0.14432-1.178 0.67131-2.4194 1.1711-1.8486 0.74419-2.3962 0.84543-3.0245 0.55915-1.136-0.51759-2.1116-0.15456-2.1116 0.78572 0 1.0489-0.54287 2.0203-1.6475 2.948-0.50189 0.42152-0.91252 0.93642-0.91252 1.1442 0 0.5703-1.3301 1.6946-2.2849 1.9315-0.46471 0.11529-1.2477 0.62996-1.7399 1.1437-0.63623 0.66408-1.2014 0.93411-1.9551 0.93411-0.58307 0-1.0601 0.11295-1.0601 0.251s-0.396 0.48924-0.88 0.78041c-2.6841 1.6148-6.1572 6.1615-6.1593 8.0634-3.78e-4 0.33814-0.19721 0.84214-0.4374 1.12-0.24019 0.27786-0.51676 1.0306-0.6146 1.6727l-0.1779 1.1675 1.4138 0.21201c1.8342 0.27506 2.0808 0.77996 2.1553 4.4132 0.05409 2.6355-0.0038 2.9616-0.57991 3.2661-0.352 0.18605-1.057 0.73325-1.5667 1.216-0.81346 0.77044-1.179 0.87772-2.9906 0.87772-1.5911 0-2.2825-0.1557-3.0184-0.67967-0.8363-0.5955-1.2743-0.66115-3.537-0.53016-1.9951 0.11549-2.6778 0.27978-3.0013 0.72221-0.37043 0.50659-0.8156 0.55507-3.8558 0.41986-2.1912-0.0975-3.4817-0.28687-3.5603-0.52256-0.07377-0.22129-0.8511-0.3704-1.9366-0.37147-2.4182-2e-3 -3.83-0.44246-5.1403-1.6024l-1.087-0.96218-3.073 0.20999c-1.7196 0.1175-3.351 0.40077-3.7042 0.64315-0.34716 0.23825-1.2472 0.43318-2 0.43318-1.497 0-1.7661 0.40482-0.66205 0.99572 1.4331 0.76699 1.8314 1.6051 1.8426 3.8778 0.0107 2.1652 0.75128 4.7265 1.3666 4.7265 0.45976 0 0.0058 3.1351-0.57381 3.9626-0.60768 0.86759-0.59675 3.2171 0.01784 3.8317 0.264 0.264 0.48 0.61888 0.48 0.78862s0.23432 0.39854 0.5207 0.50843c0.43561 0.16716 0.48548 0.51111 0.30519 2.1047-0.19185 1.6957-0.14109 1.9674 0.4622 2.4744 1.5343 1.2894 2.0824 4.3898 0.98442 5.5684-0.33411 0.35863-0.70691 1.3246-0.82844 2.1466-0.12153 0.82201-0.44512 1.7451-0.7191 2.0512-0.39117 0.43712-0.4564 1.0037-0.30377 2.6382 0.2346 2.5123 0.64257 3.3651 1.6099 3.3651 0.44112 0 1.0133 0.3851 1.4502 0.97609 1.0218 1.3821 1.9308 1.6574 6.2787 1.9014 2.112 0.11855 4.1972 0.23961 4.6338 0.26902 0.4366 0.0294 1.5166-0.21949 2.4-0.55312zm85.839-35.553c0.85254-0.67061 2.7882-0.86867 3.1273-0.32 0.10877 0.176 0.54927 0.32 0.97888 0.32 0.42962 0 0.78112 0.144 0.78112 0.32 0 0.20334 2.4886 0.32 6.8259 0.32h6.8259l0.44161-0.82516c0.92423-1.7269-0.70218-3.0775-4.9236-4.0885-1.2046-0.2885-2.7886-0.92535-3.52-1.4152-1.1156-0.74718-1.3461-1.0864-1.4306-2.1054-0.0602-0.72613 0.10361-1.5266 0.40738-1.9902 0.44915-0.68549 0.45156-0.77553 0.0208-0.77553-0.26805 0-0.48737-0.21326-0.48737-0.47391 0-0.26064-0.396-0.56067-0.88-0.66673-0.484-0.10605-1.024-0.23542-1.2-0.28749-0.176-0.0521-0.59925-1.084-0.94055-2.2933-0.978-3.4651-1.4659-4.0865-3.6954-4.7064-2.1805-0.60624-3.3972-0.67634-3.684-0.21224-0.10878 0.176-0.73648 0.32-1.3949 0.32-1.5703 0-1.9651 0.45499-1.9651 2.2648 0 0.82325-0.18 1.6393-0.4 1.8135s-1.2799 0.3923-2.3553 0.48478c-1.5139 0.13019-2.2652 0.39262-3.328 1.1626-1.2426 0.9001-1.5981 0.9944-3.75 0.9944-2.1622 0-2.5933-0.1158-4.7649-1.28-2.4294-1.3024-3.437-1.5503-3.815-0.93871-0.25076 0.40573 0.54226 1.0796 2.1166 1.7985 1.1571 0.52842 2.2166 1.9347 2.2166 2.9422 0 0.95951 0.71465 1.3181 2.6271 1.3181 1.5198 0 1.9608 0.12615 2.416 0.69114 0.30628 0.38013 2.036 2.31 3.8439 4.2886 3.2645 3.5728 3.2955 3.5963 4.5222 3.4318 0.67934-0.0911 1.5042-9e-3 1.833 0.18166 0.95537 0.55507 2.6647 0.42354 3.5505-0.27321zm-81.605-5.354c0.62467-0.4093 1.7164-0.58626 4.1795-0.67744 3.0045-0.11121 3.4245-0.0565 4.2502 0.55402 1.2395 0.91637 2.624 0.86763 3.7008-0.13029 0.47935-0.44424 1.1964-0.88924 1.5933-0.98888 0.39698-0.0996 0.80642-0.4017 0.90986-0.67126 0.28124-0.73289-0.17604-4.5233-0.58567-4.8547-0.44446-0.35955-3.2078-0.89334-5.9966-1.1584-1.7454-0.16588-2.2606-0.35341-2.9129-1.0603-1.032-1.1184-2.8066-3.7623-2.8066-4.1814 0-1.4449-1.6866-2.6179-2.1243-1.4774-0.22957 0.59824-1.5145 0.62807-1.9972 0.0464-0.19793-0.2385-0.53957-0.95109-0.75918-1.5835-0.21962-0.63245-0.98938-1.7693-1.7106-2.5264-1.4019-1.4716-2.3687-3.0883-2.3687-3.961 0-0.29497-0.432-1.3864-0.96-2.4255s-0.96-2.2376-0.96-2.6635c0-0.88235-1.5809-3.3733-2.6992-4.253-0.41216-0.3242-1.2749-1.3734-1.9172-2.3315-0.6423-0.95812-1.5189-2.2261-1.9479-2.8178-0.42906-0.59166-0.87726-1.5936-0.996-2.2266-0.20452-1.0902-0.12484-1.2317 1.5122-2.6863 0.96798-0.86007 2.287-1.6891 2.9988-1.8848 0.69888-0.19212 1.5589-0.5512 1.9112-0.79794 0.85642-0.59987 2.6188-0.58104 2.8535 0.0305 0.10112 0.26351 0.82113 0.78873 1.6 1.1671 1.4478 0.70339 1.79 1.4126 1.8011 3.7324 0.0022 0.46359 0.53194 1.2196 1.4224 2.03 0.78036 0.7102 1.702 1.8898 2.0482 2.6213 0.34612 0.73152 1.0121 1.762 1.4799 2.29 0.46781 0.528 1.0759 1.392 1.3514 1.92s0.95913 1.608 1.5193 2.4c0.5602 0.792 1.1139 1.692 1.2304 2 0.11655 0.308 0.41963 0.56 0.6735 0.56 0.50466 0 2.1185 1.7609 2.1185 2.3116 0 0.33717 1.9925 2.9838 2.7166 3.6084 0.20403 0.176 0.90026 1.0922 1.5472 2.0359 0.64693 0.94375 1.1762 1.4955 1.1762 1.2261 0-1.2047 5.014-5.2989 7.2748-5.9403 0.74513-0.21138 1.4926-0.64191 1.6611-0.95674 0.16849-0.31482 0.902-0.75087 1.63-0.96899 1.0237-0.30672 1.4241-0.63699 1.767-1.4575 0.2438-0.5835 0.66382-1.1455 0.93337-1.249 0.71594-0.27473 1.7712-2.153 1.7726-3.155 1e-3 -0.73546 0.16948-0.89708 1.1212-1.0756 0.616-0.11556 1.5959-0.12083 2.1775-0.0117 0.8016 0.15038 1.5386-0.0346 3.0451-0.76439 2.2313-1.0808 4.7403-1.3202 5.0616-0.48278 0.1013 0.264 0.36147 0.48 0.57813 0.48 0.21667 0 1.7193 0.66251 3.3392 1.4722 1.6199 0.80975 3.495 1.546 4.1669 1.6361l1.2216 0.16386 0.223-2.2632c0.21801-2.2124 0.19746-2.3031-0.91509-4.0423-0.62596-0.97853-1.1381-1.9677-1.1381-2.1981 0-0.2304-0.40942-1.0556-0.90981-1.8338-0.50039-0.77818-1.5116-2.3509-2.2471-3.4949s-1.4964-2.6051-1.6909-3.247l-0.35369-1.167-2.4552 0.16828c-1.8947 0.12987-2.6854 0.0493-3.4634-0.35305-0.55448-0.28673-1.3804-0.52133-1.8353-0.52133-1.4777 0-2.4046-0.87739-2.4046-2.2761 0-0.96264-0.23459-1.4912-1.0416-2.3468-1.0409-1.1036-2.912-2.0908-3.9881-2.1043-0.31365-4e-3 -0.91348-0.27102-1.333-0.59356-0.69785-0.53661-0.74392-0.73651-0.54208-2.352 0.16979-1.359 0.3752-1.8345 0.89201-2.0651 0.68309-0.3048 1.6196-2.8133 1.5315-4.1022-0.02406-0.352-0.07142-1.432-0.10523-2.4-0.05749-1.6459-0.50616-2.8371-2.2901-6.08-0.77716-1.4128-2.0039-4.2934-2.2105-5.1908-0.11026-0.47892-0.52276-1.0405-0.91669-1.2479s-0.78822-0.48519-0.87622-0.61725c-0.26031-0.39065-1.0252-0.44493-2.64-0.18734-1.6262 0.25941-2.0322 0.97982-1.0238 1.8167 0.70468 0.58484 0.45221 1.9782-0.43847 2.4198-0.40826 0.20242-0.96601 0.68744-1.2394 1.0778-0.38241 0.54597-0.73998 0.68144-1.5493 0.58696l-1.0521-0.12283-0.2208 1.7724c-0.28131 2.2581-0.62965 2.8924-1.5884 2.8924-0.42342 0-0.85627 0.13982-0.96189 0.31072-0.10562 0.1709-0.90612 0.40545-1.7789 0.52123-1.3696 0.18168-1.5868 0.30901-1.5868 0.93009 0 0.39578-0.216 0.89886-0.48 1.118s-0.48 0.59166-0.48 0.82792c0 1.9291-7.5081 1.1471-9.2606-0.96454-0.22978-0.27692-0.6262-0.50344-0.88094-0.50344s-1.1011-0.43892-1.8808-0.97538c-1.0262-0.70606-1.4177-1.192-1.4177-1.76 0-0.55946-0.17571-0.78462-0.6123-0.78462-0.63572 0-3.5181-3.1957-4.3723-4.8476-0.2595-0.50181-0.64811-0.90101-0.86359-0.88712-0.30028 0.0194-0.29836 0.063 0.0082 0.18667 0.61075 0.24644 0.48633 2.4706-0.18126 3.2403-0.42843 0.49399-1.0361 0.69617-2.3113 0.76897l-1.73 0.0988-0.26092 1.3264c-0.1435 0.72953-0.60438 1.6655-1.0242 2.08-1.1144 1.1003-2.6211 2.1936-3.023 2.1936-0.19216 0-0.34939 0.26002-0.34939 0.57783 0 0.3178-0.36 1.0658-0.8 1.6622-0.44 0.59638-0.8 1.2724-0.8 1.5022 0 0.29985-0.57306 0.41783-2.0296 0.41783-1.9992 0-2.0388-0.0171-2.64-1.141-0.63979-1.1959-2.2136-2.379-3.1649-2.379-0.30741 0-1.2264-0.34909-2.0422-0.77576-0.96198-0.5031-2.2706-0.84157-3.7233-0.96301-1.232-0.103-2.7648-0.27188-3.4062-0.37531-1.9609-0.31619-5.8543 2.0557-6.6913 4.0763-0.20371 0.4918-0.78875 1.0794-1.3001 1.3057-0.6306 0.27913-0.86569 0.56605-0.73071 0.8918 0.5485 1.3238 0.49563 3.161-0.13177 4.5793-0.64682 1.4622-0.64709 1.4819-0.03096 2.2651 1.2138 1.5431 2.5804 2.1158 5.0488 2.1158 1.3779 0 2.2822 0.13289 2.2822 0.33537 0 0.35397 1.5621 2.7957 3.1633 4.9446 0.52457 0.704 1.3426 2.072 1.8179 3.04 0.93357 1.9014 3.6699 6.1423 4.6667 7.2328 0.58448 0.63942 0.6919 1.565 0.62757 5.4072-0.14944 8.9258-0.06781 10.432 0.62622 11.555 1.2795 2.0703 2.2183 4.2728 2.2183 5.2043 0 0.50737 0.23176 1.4772 0.51503 2.1551 0.36582 0.87553 0.54722 2.5307 0.62616 5.7132 0.09426 3.8004 0.19538 4.5422 0.66613 4.8864 0.76395 0.55861 3.6839 0.51663 4.4515-0.064 0.37575-0.2842 1.3553-0.47384 2.4795-0.48 1.0221-6e-3 2.4951-0.17053 3.2734-0.36651 1.7615-0.44355 2.5963-0.2358 3.8608 0.96081 1.1563 1.0942 2.8339 1.6312 5.1035 1.6337 0.8888 9.8e-4 1.7528 0.13181 1.92 0.29072 0.84471 0.80287 4.6485 0.87947 5.8121 0.11705zm93.772-7.5818c0.40865-0.34949 0.72-0.98034 0.72-1.4588 0-0.46369 0.21142-1.1226 0.46982-1.4642s0.4744-0.93667 0.48-1.3223c6e-3 -0.38561 0.14165-0.78237 0.30233-0.88168 0.16069-0.0993 0.38922-0.75505 0.50785-1.4572 0.11862-0.70216 0.36185-1.367 0.54049-1.4774 0.17865-0.11041 0.53475-0.65116 0.79134-1.2017 0.2566-0.55051 0.67178-1.3609 0.92264-1.8009 0.58094-1.019 0.64999-3.5125 0.0815-2.944-0.4858 0.48579-1.9695 0.48906-4.1516 9e-3 -1.8927-0.41627-2.8244-1.0385-2.8244-1.8863 0-0.30908-0.432-0.92547-0.96-1.3698-0.94142-0.79215-0.95986-0.86548-0.95237-3.7884 8e-3 -3.216 0.36478-5.3375 0.95872-5.7046 0.25707-0.15888 0.27597-0.41727 0.0609-0.83319-0.36839-0.71255-1.0273-3.4132-1.0273-4.2105 0-1.5042-2.9716-1.6748-3.5313-0.20274-0.16109 0.42369-0.51246 0.77036-0.78081 0.77036-0.26836 0-0.48792 0.144-0.48792 0.32 0 0.52159-5.4904 0.38259-6.2032-0.15705-0.33177-0.25119-1.2678-0.54955-2.08-0.66304-1.2413-0.17344-1.7238-0.46892-3.0261-1.8531-0.8521-0.90573-1.7558-2.0428-2.0082-2.5268-0.25242-0.484-0.56649-0.88-0.69795-0.88s-0.49212-0.468-0.80148-1.04c-0.69553-1.286-3.7196-3.44-4.8297-3.44-1.8717 0-5.5977-0.77048-7.3773-1.5255-3.3184-1.4079-7.5361-0.89084-7.5361 0.92384 0 0.88253-1.1889 1.3602-3.9162 1.5736-1.3619 0.10653-2.5703 0.28786-2.6854 0.40294-0.267 0.267 1.7674 4.255 2.5163 4.9328 0.31086 0.28132 0.5692 0.66918 0.5741 0.8619 5e-3 0.19272 0.4369 0.91606 0.96 1.6074s0.9511 1.4664 0.9511 1.7222c0 0.54498 1.1157 2.4807 2.002 3.4736 0.58321 0.6533 0.59511 0.85807 0.2086 3.5889-0.37127 2.6232-0.35904 2.9523 0.12974 3.4924 0.2968 0.32796 0.53964 0.81932 0.53964 1.0919s0.216 0.67489 0.48 0.89399 0.48 0.53673 0.48 0.70586c0 0.16912 0.504 0.79694 1.12 1.3952 1.9752 1.9182 1.5507 3.5307-1.8241 6.9289-3.3245 3.3475-3.3251 3.3484-2.7331 4.0161 0.27012 0.3047 0.54286 0.83627 0.60609 1.1813 0.12217 0.66658 1.5507 1.1625 3.3111 1.1494 0.528-4e-3 1.5015 0.22928 2.1634 0.51822 1.0353 0.45201 1.3789 0.46743 2.4604 0.11049 1.7253-0.5694 3.4102-0.2739 5.3923 0.94573 1.201 0.73898 2.194 1.0753 3.5094 1.1885 1.6719 0.14389 1.9729 0.0651 3.3962-0.8886 1.2358-0.82815 2.0036-1.0845 3.68-1.2287l2.1184-0.18211 0.16501-1.8548c0.18185-2.044 0.53663-2.4527 2.1361-2.4603 0.56161-3e-3 1.1101-0.1489 1.2189-0.3249 0.55046-0.89068 6.4424 0.0602 7.6104 1.2282 0.33876 0.33876 1.0237 1.8188 1.5222 3.2889 0.82342 2.4287 0.99722 2.6966 1.9019 2.931 0.5476 0.1419 1.0737 0.46134 1.169 0.70988 0.19488 0.50785 0.95584 0.19572 2.2765-0.93377zm-82.976-2.0242c0.11741-0.484 0.46736-1.456 0.77768-2.16 1.271-2.8833 1.318-3.2641 0.57093-4.6168-0.69944-1.2663-1.7625-2.6656-3.6358-4.7855-0.56271-0.63678-1.1123-1.5092-1.2214-1.9388-0.22263-0.87685-1.3042-1.939-1.9745-1.939-0.24259 0-0.53135-0.252-0.64168-0.56-0.11033-0.308-0.68181-1.2273-1.27-2.0429-0.58815-0.81558-1.0694-1.6184-1.0694-1.7841 0-0.16566-0.64394-1.1305-1.431-2.144-0.78704-1.0136-1.7418-2.4652-2.1217-3.226-0.37992-0.76073-1.2446-1.7926-1.9215-2.2931-0.84563-0.62527-1.2342-1.1603-1.2418-1.71-0.03249-2.3446-0.38982-3.2012-1.5668-3.7561-0.6365-0.30005-1.3877-0.82676-1.6693-1.1705-0.50663-0.61828-0.52402-0.61753-1.6378 0.0708-0.61914 0.38265-1.4332 0.69573-1.8091 0.69573-0.37589 0-1.3669 0.64719-2.2022 1.4382-0.83534 0.79101-1.6297 1.439-1.7653 1.44-0.30239 2e-3 0.99308 2.5952 1.5192 3.0407 0.20852 0.1766 0.92183 1.1591 1.5851 2.1834 0.6633 1.0242 1.411 1.941 1.6617 2.0371 0.74971 0.28769 2.6806 3.4601 2.6806 4.4042 0 0.48254 0.432 1.6645 0.96 2.6266 0.528 0.96208 0.96 1.9621 0.96 2.2223 0 0.83194 1.1881 2.8131 2.3648 3.9434 0.64942 0.62378 1.3615 1.7601 1.6531 2.6379 0.42368 1.2756 0.60463 1.4928 1.0472 1.2568 0.55986-0.29857 1.6447-0.44585 2.8421-0.38588 0.54492 0.0273 0.7983 0.34744 1.1044 1.3954 0.2185 0.748 0.49596 1.432 0.61659 1.52 0.12063 0.088 0.61342 0.88 1.0951 1.76s0.98865 1.7234 1.1266 1.8744c0.31744 0.34721 2.0841 0.77016 3.3954 0.81289 0.84349 0.0275 1.0397-0.1089 1.2188-0.84724zm73.136-29.84c0-0.176 0.288-0.32 0.64-0.32 0.42927 0 0.64-0.21334 0.64-0.64792 0-0.40106 0.31274-0.76683 0.82083-0.96 1.155-0.43913 3.4491-0.38822 3.9623 0.0879 0.35455 0.32896 0.38744 0.28634 0.18526-0.24-0.13522-0.352-0.31934-1.3303-0.40916-2.174-0.12792-1.2016-0.046-1.6198 0.37812-1.9299 0.39569-0.28933 0.59315-1.0798 0.73357-2.9364 0.20071-2.6538 0.76446-3.6439 2.0891-3.6691 0.308-6e-3 0.8513-0.30194 1.2073-0.65798 0.49974-0.49974 0.57386-0.78462 0.32507-1.2495-0.17724-0.33118-0.41143-1.5879-0.52042-2.7927-0.16242-1.7955-0.0768-2.4956 0.47493-3.8824 0.7907-1.9875 0.85669-3.7086 0.19112-4.9847-0.69465-1.3319-0.59569-1.7298 0.48197-1.938 0.528-0.10198 1.3932-0.26913 1.9227-0.37143 0.52946-0.10231 1.0862-0.42631 1.2372-0.72 0.33246-0.64677 0.72544-4.1667 0.67995-6.0904-0.0212-0.8941 0.1593-1.6089 0.50162-1.9872 0.39375-0.43509 0.47864-0.8893 0.32213-1.7236-0.11688-0.62303-0.33438-1.1328-0.48332-1.1328-0.14895 0-0.36964-0.396-0.49043-0.88-0.36729-1.4717-1.0167-1.9543-2.3833-1.771-2.4989 0.33518-3.2498-0.9974-1.7674-3.1365l0.81903-1.1819-0.89903-1.7497c-1.0933-2.1278-1.9718-2.5702-3.6855-1.8556-0.97223 0.40538-1.261 0.74598-1.5992 1.8862-0.40383 1.3617-0.43782 1.3882-1.5839 1.2344-0.64419-0.0864-1.3286 2.1e-4 -1.5208 0.19249-0.19227 0.19227-0.34958 1.1617-0.34958 2.1542 0 1.6233-0.0819 1.842-0.81506 2.176-1.1977 0.54571-3.4711 0.45238-4.5946-0.18863-0.99925-0.57011-1.9461-2.3553-1.9552-3.6865-9e-3 -1.2924-0.2222-1.4333-4.3951-2.9037-0.572-0.20155-1.04-0.47522-1.04-0.60815 0-0.13294-0.144-0.2417-0.32-0.2417-0.18159 0-0.32064 0.93432-0.32148 2.16-1e-3 1.5271-0.22168 2.7005-0.75303 4.0049-0.73059 1.7934-2.4625 4.0751-3.0932 4.0751-0.56346 0-0.32666 1.0324 0.37672 1.6425 0.37893 0.32865 0.80723 0.59754 0.95178 0.59754 0.42449 0 1.2393 1.8136 1.2393 2.7584 0 0.6471-0.46989 1.3075-1.8328 2.5759-1.008 0.93813-2.004 1.7057-2.2133 1.7057s-0.42855 0.14202-0.48722 0.3156c-0.0587 0.17358-0.7933 0.40952-1.6325 0.5243-1.219 0.16673-1.6534 0.0933-2.16-0.3652-0.34878-0.31564-0.63414-0.7016-0.63414-0.85768s-0.27715-0.58127-0.61589-0.94486l-0.61589-0.66108-1.233 0.99083c-0.81766 0.65709-1.7514 1.0619-2.7723 1.2018-1.8655 0.25569-2.1124 0.73542-1.2072 2.3459 1.0175 1.8103 0.97624 5.2615-0.0764 6.3928-0.72474 0.77895-2.1194 4.2728-2.1194 5.3094 0 0.26915-0.36 1.1998-0.8 2.0681-1.1647 2.2984-1.1267 2.3618 1.2688 2.1164 1.8247-0.18695 2.3438-0.10215 4.4 0.71879 2.1556 0.86064 5.8699 1.6448 7.7909 1.6448 1.3165 0 3.9899 2.3267 6.2203 5.4136 1.144 1.5833 2.2432 2.885 2.4427 2.8926 0.19948 8e-3 0.43249 0.28074 0.5178 0.60698 0.11309 0.43243 0.57846 0.65239 1.7173 0.81168 0.85922 0.12018 1.9222 0.42415 2.3622 0.67549 0.91022 0.51994 4.48 0.64716 4.48 0.15966zm-40.508-9.3179c0.54092-0.15514 1.7499-0.28206 2.6866-0.28206 2.1215 0 2.8164-0.36225 3.4072-1.776 0.25576-0.61213 0.68752-1.1983 0.95947-1.3027 0.27195-0.10435 0.49445-0.54007 0.49445-0.96825s0.29496-1.3567 0.65546-2.0633c0.3605-0.70665 1.0154-2.5268 1.4552-4.0447 0.52013-1.7949 1.0742-3.0142 1.5845-3.4872 1.0244-0.94941 1.0694-3.007 0.10048-4.5964-0.89458-1.4675-0.95768-3.4253-0.12991-4.0306 0.33908-0.24794 1.1001-0.4508 1.6912-0.4508 1.3061 0 2.8229-0.74037 3.2847-1.6033 0.19631-0.3668 0.6696-0.63668 1.1165-0.63668 0.78839 0 2.2669 1.3139 2.5774 2.2904 0.0928 0.29175 0.39572 0.61758 0.67326 0.72408 0.75303 0.28897 3.0894-1.0045 4.6063-2.5501 1.2017-1.2244 1.3079-1.4566 1.0408-2.274-0.16362-0.50072-0.61192-1.0524-0.99622-1.226-0.90973-0.41095-1.7707-2.2393-1.5217-3.2315 0.10669-0.42509 0.32001-0.77288 0.47404-0.77288 0.15404 0 0.72222-0.41304 1.2626-0.91785 1.5-1.4012 2.2147-3.7737 2.471-8.2022 0.12224-2.112 0.41685-4.488 0.65469-5.28 0.23785-0.792 0.43401-1.7112 0.43591-2.0428 4e-3 -0.75509 1.5995-2.1814 2.2435-2.006 0.264 0.0719 0.68358 0.18429 0.93241 0.24975 0.26188 0.0689 0.76845-0.42005 1.2028-1.161 0.59228-1.0102 0.70759-1.5483 0.54712-2.553-0.26903-1.6845-0.9355-2.6439-1.9989-2.8774-0.47822-0.10503-1.7103-0.76162-2.7379-1.4591-2.1798-1.4794-3.2131-1.7879-6.9055-2.0613-2.9284-0.21686-7.3591-1.1374-7.3597-1.5291-1.8e-4 -0.132-0.83037-0.24-1.8448-0.24-2.3698 0-5.1168-0.99574-6.0553-2.1949-0.39541-0.50524-1.1522-1.0981-1.6817-1.3174-1.1788-0.48828-1.6789-2.2474-0.89283-3.1404 0.26492-0.30096 0.93583-1.4063 1.4909-2.4564l1.0092-1.9092-1.2129-1.0257c-1.8342-1.5511-4.3834-3.0161-5.3768-3.09-0.72674-0.05403-0.94318 0.10685-1.2029 0.89412-0.4145 1.2564-1.1525 2.08-1.8639 2.08-0.31434 0-0.65043 0.12768-0.74687 0.28372-0.0965 0.15605-0.70959 0.38395-1.3626 0.50644-0.65295 0.1225-1.4786 0.42682-1.8347 0.67628-0.8165 0.5719-1.732 0.57482-3.1061 0.0099-1.0913-0.44867-2.2398-0.26716-2.6652 0.42122-0.55634 0.90017-3.9542-0.06071-4.8047-1.3587-0.26588-0.40579-1.0699-1.0674-1.7868-1.4703-1.1308-0.63553-1.6581-0.7177-3.982-0.62053-2.3678 0.099-2.7832 0.20959-3.5795 0.9529-1.3898 1.2973-2.1285 1.5591-4.3998 1.5591-1.6967 0-2.101 0.09677-2.101 0.50286 0 0.27657 0.216 0.71886 0.48 0.98286s0.48 0.78349 0.48 1.1544 0.17967 1.1713 0.39927 1.7786c0.36789 1.0174 0.34274 1.1417-0.32 1.5818-0.93799 0.6228-0.91091 1.6154 0.08073 2.9595 0.8972 1.2161 0.96118 1.8699 0.35039 3.5804-0.23184 0.64924-0.31386 1.2972-0.18227 1.44 0.13159 0.14276 0.40354 1.23 0.60434 2.4161 0.2008 1.1861 0.66447 2.664 1.0304 3.2842 0.40875 0.69278 0.7843 2.1441 0.97388 3.7634 0.20143 1.7206 0.4826 2.7703 0.80976 3.0232 0.61354 0.47416 0.4024 2.7381-0.33177 3.5575-0.60337 0.67338-0.76972 2.8778-0.2847 3.7729 0.20199 0.37275 0.80437 0.76515 1.3386 0.872 0.55889 0.11178 0.97136 0.3962 0.97136 0.66981 0 0.70344 1.2919 1.7805 2.1357 1.7805 0.58161 0 0.94392 0.4175 1.7356 2 1.1542 2.3072 1.7726 3.0878 2.739 3.4575 0.42814 0.16378 0.77727 0.6664 0.91917 1.3233 0.12585 0.58255 0.5473 1.6352 0.93656 2.3392 0.38926 0.704 0.81485 1.712 0.94576 2.24s0.44369 1.1883 0.69507 1.4674c0.25138 0.27906 0.86677 1.3591 1.3675 2.4 0.76046 1.5808 0.91289 2.3144 0.9251 4.4526 0.0085 1.4969-0.17105 3.0081-0.43247 3.6391-0.2459 0.59349-0.44708 1.339-0.44708 1.6568s-0.3368 0.84263-0.74846 1.1664c-0.41165 0.3238-0.82534 0.99093-0.91931 1.4825-0.21489 1.1241 0.48256 1.614 3.0317 2.1294 1.4811 0.29944 1.9312 0.5415 2.2872 1.2301 0.24382 0.47148 0.74605 1.1312 1.1161 1.4661 0.43359 0.3924 0.67276 0.99749 0.67276 1.7021 0 1.4001 0.62249 2.0076 2.0571 2.0076 0.62857 0 1.1429 0.13344 1.1429 0.29653 0 0.1631 0.252 0.36788 0.56 0.45508 0.72806 0.20611 4.7072-0.10674 5.9723-0.46955zm-67.652-14.876c0-0.28259 0.36-0.94164 0.8-1.4646s0.8-1.1334 0.8-1.3566c0-0.51264 0.92239-1.3537 2.2875-2.0858 1.2148-0.65149 2.1352-2.0369 2.1691-3.265 0.02712-0.98081 0.51695-1.2342 2.3856-1.2342 0.7424 0 1.5226-0.1728 1.7338-0.384 0.465-0.46501 0.50963-1.536 0.064-1.536-0.54484 0-0.37563-2.1502 0.18617-2.3658 1.2548-0.48152 2.1784 0.0162 3.1454 1.6951 1.0099 1.7534 3.2836 4.1563 3.9484 4.1728 0.54941 0.0136 0.72 0.20693 0.72 0.81585 0 0.56793 0.38287 1.0753 1.328 1.76 0.73041 0.5291 1.5357 0.96201 1.7895 0.96201 0.25383 0 0.82765 0.288 1.2751 0.64 0.4475 0.352 1.0303 0.64 1.2952 0.64s0.64144 0.19993 0.83684 0.44429c0.1954 0.24435 1.2415 0.53794 2.3246 0.65242 1.899 0.20069 1.9923 0.17587 2.612-0.69436 0.35345-0.49637 0.69124-1.33 0.75064-1.8524 0.0937-0.82413 0.31988-1.0207 1.708-1.4843 0.88-0.29389 2.1246-0.54589 2.7658-0.56 1.3405-0.0295 1.4315-0.18197 1.7406-2.9138l0.22304-1.9714 1.1527 0.13457c0.92072 0.10749 1.2706-0.0153 1.7385-0.61021 0.32221-0.40962 0.79139-0.74477 1.0426-0.74477 0.50513 0 0.6175-0.5029 0.17367-0.7772-0.15571-0.0962-0.35825-0.57273-0.45008-1.0589-0.09184-0.48615-0.26924-1.2079-0.39422-1.6039-0.19688-0.62381-0.11292-0.72 0.62838-0.72 1.1343 0 3.7559-0.66919 3.6091-0.92124-0.06368-0.10932-0.37934-0.81076-0.70146-1.5588-0.48426-1.1245-0.73684-1.36-1.4586-1.36-0.61267 0-1.1954-0.36793-1.9547-1.2341-0.59495-0.67874-1.3824-1.3295-1.75-1.4462-1.0541-0.33457-1.4441-1.5958-1.2075-3.9053 0.11546-1.127 0.40617-2.2119 0.64602-2.4109 0.57179-0.47455 0.55908-1.5364-0.02105-1.7591-0.31634-0.12139-0.45714-0.69595-0.45714-1.8654 0-2.3602-0.3306-3.9939-1.0696-5.2857-0.34821-0.60864-0.76854-1.9766-0.93407-3.04-0.19541-1.2553-0.5221-2.1197-0.93149-2.4647-0.7434-0.6264-0.81663-1.4952-0.16804-1.9934 0.25437-0.1954 0.54901-0.71528 0.65475-1.1553 0.18821-0.78313 0.15817-0.79766-1.4249-0.68895-1.1831 0.08124-1.9628-0.06911-2.9048-0.56008-1.101-0.57389-1.3143-0.60157-1.4718-0.19105-0.33083 0.86214-1.3854 0.50727-2.8526-0.95992l-1.44-1.44h-2.4518c-2.9175 0-4.3851 0.75377-4.8751 2.5039-0.39864 1.4238-0.24212 1.7547 2.1163 4.4734 2.1787 2.5117 2.5556 3.7488 1.4979 4.9175-0.93334 1.0313-7.2746 0.72833-7.5596-0.36121-0.08684-0.33209-0.83004-0.77511-1.8675-1.1132-4.9223-1.6042-10.514-4.7466-11.16-6.2717-0.18909-0.44626-1.3482-1.8668-2.5757-3.1567-1.8735-1.9687-2.3472-2.3089-2.9496-2.1187-2.0537 0.64851-2.343 0.57035-7.269-1.9634-4.1678-2.1437-4.9974-2.6966-5.6872-3.7898-0.44417-0.704-0.85069-1.3305-0.90338-1.3922-0.17411-0.2039-1.2942 1.0524-2.0335 2.2807-0.40003 0.66467-0.89322 1.3847-1.096 1.6-1.3779 1.4633-4.0487 5.083-4.0487 5.4871 0 0.26933-0.396 0.74169-0.88 1.0497s-0.952 0.64976-1.04 0.75947-0.49092 0.37381-0.89538 0.58688c-0.90068 0.47447-0.75592 1.1707 0.67121 3.2284 1.2553 1.8099 1.771 2.2171 2.8242 2.2298 0.462 6e-3 1.29 0.10018 1.84 0.21018 0.83949 0.1679 1 0.34648 1 1.1126 0 0.61844-0.25587 1.0803-0.79375 1.4327-0.63095 0.41341-0.7294 0.64033-0.48 1.1063 0.46968 0.87762 0.37962 2.7052-0.22514 4.5682-0.65514 2.0182-1.0413 2.3321-3.1791 2.5833-2.4011 0.2822-5.6495 1.1461-6.1635 1.6391-0.64325 0.61704-0.1877 2.0368 0.77042 2.4011 0.7066 0.26864 0.79106 0.48523 0.79106 2.0284 0 1.9104 0.73946 4.3793 1.4269 4.764 0.24371 0.13638 0.5367 0.67413 0.6511 1.195 0.20815 0.94769-0.24151 1.7838-2.4442 4.5451l-0.68278 0.85591 0.93739 1.6592c0.85367 1.511 1.2223 1.8061 4.1275 3.3041 1.7546 0.90469 3.6208 1.8148 4.1471 2.0225 0.52634 0.20766 1.389 0.62545 1.917 0.92841 1.829 1.0494 2.0791 1.117 2.7694 0.74759 0.64904-0.34735 1.4873-0.32268 6.9906 0.20575 1.1753 0.11286 2.7685 0.53485 3.6628 0.9702 0.87056 0.42376 1.8817 0.77048 2.2471 0.77048 0.76134 0 3.0501 1.7704 3.0501 2.3593 0 0.69121 0.7378 1.1607 1.824 1.1607 0.75621 0 1.056-0.14587 1.056-0.51381zm122.08-20.708c0.37022-0.38384 1.097-1.001 1.6151-1.3716 0.83727-0.59883 0.90133-0.75883 0.57657-1.44-0.65289-1.3694-1.1657-4.3593-0.99133-5.7794 0.0937-0.76281 0.54759-2.2231 1.0087-3.2451l0.83833-1.8582 1.356 0.0982c1.3174 0.0954 1.371 0.14356 1.8842 1.6912 0.5681 1.7132 1.1234 2.2224 2.7479 2.5198 1.1762 0.21529 1.2048 0.15531 1.4854-3.1184 0.0889-1.0371 0.31393-2.0379 0.50006-2.224s0.33842-1.1618 0.33842-2.1682c0-2.4074 0.1975-2.8422 1.291-2.8422 1.0389 0 2.0706 1.1105 2.3923 2.575 0.25342 1.1538 0.58718 1.1836 1.6258 0.14498 1.6672-1.6672 2.3698-0.95791 2.6726 2.6981 0.17148 2.0701 0.40229 3.103 0.77714 3.4779 0.49764 0.49763 0.61833 0.43747 1.8082-0.90137 0.70122-0.78903 1.7658-2.4667 2.3657-3.7282 0.63932-1.3444 1.4004-2.4549 1.839-2.6833 0.41157-0.21437 0.78408-0.41802 0.82779-0.45255 0.0437-0.0345-0.28758-0.96609-0.73619-2.0701-0.8609-2.1187-3.0892-5.8464-4.0977-6.8548-0.79403-0.79403-0.61335-3.8368 0.26601-4.4798 0.42985-0.31431 0.4987-0.56422 0.26868-0.97524-0.27742-0.49572-0.451-0.43421-1.6857 0.59738-0.75706 0.6325-1.6565 1.506-1.9987 1.9411-0.34223 0.43508-0.883 0.79106-1.2017 0.79106-0.65352 0-0.96321 0.84632-0.96972 2.65-3e-3 0.75084-0.17803 1.2767-0.46198 1.3856-0.66352 0.25462-2.6921-0.79593-3.322-1.7203-0.29724-0.43624-0.85248-1.1302-1.2339-1.5422-0.38139-0.41199-0.91719-1.0685-1.1907-1.459-0.27348-0.39044-1.2574-1.0323-2.1866-1.4264l-1.6893-0.71652-0.0984 1.0797c-0.10216 1.1204-1.1592 2.035-2.9416 2.545-0.44 0.12591-1.3547 0.66495-2.0327 1.1979-1.1255 0.88467-1.3844 0.9533-2.9761 0.78902-1.6396-0.16923-1.7614-0.13238-2.0473 0.61944-0.16716 0.43965-0.30392 1.4525-0.30392 2.2508v1.4514l-1.36-0.15272c-0.748-0.084-2.1395-0.37966-3.0922-0.65703-1.405-0.40905-1.9904-0.43525-3.0992-0.13868-1.0093 0.26994-1.572 0.27226-2.15 0.0089-0.85825-0.39105-0.80487-0.47188-2.3745 3.5951-0.60411 1.5653-0.64644 1.6-1.9512 1.6-1.2064 0-1.3336 0.0757-1.3333 0.79339 2.3e-4 0.43636-0.46758 1.4865-1.0396 2.3336-0.96228 1.425-1.1297 1.5341-2.2406 1.4586-1.5861-0.10772-1.9327 0.33579-2.6148 3.3457-0.62094 2.7402-0.53151 3.4288 0.4453 3.4288 0.35753 0 0.65005 0.144 0.65005 0.32s0.252 0.32756 0.56 0.33681c0.308 9e-3 1.496 0.47724 2.64 1.04 1.9496 0.95905 2.0921 1.1034 2.2728 2.3032 0.43077 2.8595 1.4261 3.8283 3.6564 3.559 0.6989-0.0844 1.3787-0.16368 1.5107-0.17622 0.132-0.0126 0.24-0.86918 0.24-1.9036 0-2.2077 0.42803-2.7313 2.0756-2.539 0.75711 0.0884 1.1244 3.8e-4 1.1244-0.26942 0-0.98351 0.86507-2.1246 2.0416-2.693 2.234-1.0793 3.8874-0.69799 4.8751 1.1244 0.24382 0.44984 0.65842 1.2139 0.92134 1.6979 0.65316 1.2024 0.59955 2.6152-0.14192 3.74-0.34082 0.51703-0.54016 1.0687-0.44298 1.2259 0.27225 0.44052 1.7569-0.0497 2.5076-0.82807zm-17.016-19.658c1.3874-4.3273 1.9631-5.4074 3.0234-5.6736 0.95236-0.23903 0.7767-0.82446-0.43398-1.4464-1.2646-0.64964-1.4352-0.93526-1.3379-2.24 0.0688-0.9229 0.28062-1.2185 1.2035-1.6797 1.0852-0.54228 1.1166-0.60957 1.0103-2.1639-0.1063-1.5545-0.0765-1.6182 0.96-2.0554 1.5772-0.66515 2.5097-1.6731 2.5097-2.7128 0-0.80996-1.1296-3.8682-1.4288-3.8682-0.0654 0-0.34663-0.08741-0.62502-0.19424-0.36287-0.13924-0.50617-0.0033-0.50617 0.48 0 0.57123-0.19206 0.67424-1.2572 0.67424-0.71619 0-1.4735-0.21638-1.76-0.50286-0.57799-0.578-0.67522-2.7168-0.14749-3.2445 0.26049-0.26049 0.13234-0.54929-0.48-1.0817-0.70811-0.61569-0.83536-0.99016-0.83536-2.4582 0-1.2473 0.17906-1.9595 0.64-2.5454 0.731-0.92932 0.79837-1.6296 0.26863-2.7923-0.22979-0.50435-0.6328-0.81506-1.0572-0.81506-0.37719 0-1.3981-0.34055-2.2686-0.75678-2.1694-1.0372-4.9341-1.6144-7.8084-1.6301l-2.4144-0.01316-0.58636 1.2c-0.54584 1.1171-0.68403 1.2-2 1.2-0.9195 0-1.4136 0.14018-1.4136 0.40102 0 0.22056-0.504 1.1099-1.12 1.9763-0.89872 1.2641-1.12 1.8733-1.12 3.0834 0 1.4468-0.0423 1.5162-1.04 1.7093-0.92405 0.17882-2.0021 0.78881-4.72 2.6708-1.6651 1.153-2.88 2.6718-2.88 3.6004 0 0.66966-0.19344 0.97602-0.72 1.1403-0.90614 0.28278-1.1889 0.70971-1.1951 1.8044-3e-3 0.47626-0.4369 1.5986-0.9649 2.4941s-0.96 1.7658-0.96 1.9341-0.144 0.30592-0.32 0.30592c-0.74154 0-0.26669 1.2911 0.649 1.7647 0.53295 0.2756 1.3466 0.92482 1.808 1.4427 0.46976 0.52723 1.3123 1.0304 1.9145 1.1434 0.59155 0.11098 1.1544 0.32945 1.2509 0.4855 0.0964 0.15605 1.1748 0.28372 2.3965 0.28372 1.2216 0 2.2211 0.10992 2.2211 0.24427 0 0.48485 3.4324 1.149 6.88 1.3312 3.6242 0.19157 5.8558 0.86131 6.8392 2.0525 0.24155 0.2926 0.69192 0.532 1.0008 0.532s0.72917 0.20187 0.93394 0.4486 0.71401 0.53437 1.1316 0.63919c0.41764 0.10482 1.226 0.77984 1.7965 1.5001 0.89208 1.1264 1.8141 1.7952 2.5806 1.8719 0.11148 0.0112 0.28348-0.23171 0.38224-0.53971zm12.375-5.3123c0-1.1491 0.51203-3.4078 0.77253-3.4078 0.0385 0 0.90652 0.15465 1.929 0.34368 1.8152 0.33557 1.8827 0.32198 2.8588-0.57568 0.54981-0.50564 1.5757-1.11 2.2797-1.343 1.7915-0.59297 2.4-1.2204 2.4-2.4746 0-0.99494 0.0733-1.0702 1.04-1.0673 2.2438 0.0067 4.9606 1.8746 6.7919 4.6695 0.62697 0.95688 1.757 2.0185 2.1681 2.0367 0.132 0.0059 0.24-0.40335 0.24-0.90935 0-2.0045 0.34898-2.8458 1.2557-3.0271 0.47798-0.0956 1.003-0.45631 1.1667-0.80158 0.16369-0.34528 0.94562-1.1162 1.7376-1.7131 1.9493-1.4692 2.0601-2.4412 0.41833-3.6679-0.67008-0.50065-1.4681-1.2181-1.7733-1.5943-0.84176-1.0376-1.9308-1.1624-3.8333-0.43928-1.8494 0.70292-5.1091 0.85752-6.9498 0.32962-0.60159-0.17253-1.4646-0.65967-1.9179-1.0825-0.45324-0.42286-1.5441-1.1244-2.4241-1.5589-3.9012-1.9265-4.3005-2.2032-5.2855-3.6626-0.81861-1.213-0.98283-1.7237-0.83907-2.6096 0.16107-0.99258 0.0284-1.2486-1.3422-2.5907-0.83653-0.81911-2.2347-1.8083-3.1071-2.1983-3.319-1.4835-3.187-1.3439-3.178-3.3607l8e-3 -1.823h-1.3069c-0.7188 0-1.5864 0.20723-1.9281 0.46051-0.52855 0.39185-0.56153 0.55819-0.22116 1.1157 0.54708 0.89605 0.50338 2.2442-0.08 2.4681-0.264 0.10131-0.48 0.52029-0.48 0.93107s-0.144 0.83588-0.32 0.94465-0.32 0.45785-0.32 0.77573-0.288 0.94409-0.64 1.3916c-0.86268 1.0967-0.80569 2.2055 0.16 3.1127 0.85129 0.79975 1.059 2.173 0.42468 2.8073-0.28461 0.28461-0.28627 0.57078-7e-3 1.184 0.48317 1.0604 1.3422 1.066 1.3422 0.0087 0-0.89733 0.55644-1.0189 2.1386-0.4674 1.2179 0.42456 2.3436 2.9654 2.3365 5.2736-6e-3 1.9352-0.0861 2.0633-1.9776 3.1617l-1.5025 0.87247 0.17938 1.5146 0.17939 1.5146-1.3168 0.59382c-0.72427 0.3266-1.3168 0.78502-1.3168 1.0187s0.59339 0.72762 1.3187 1.0976c1.2886 0.65738 1.3151 0.70427 1.1629 2.0549l-0.1558 1.3822 0.92889-0.32381c1.0738-0.37432 3.8241-0.08877 5.2254 0.54252 1.5727 0.70852 1.76 0.61193 1.76-0.90778zm-10.114-29.199c0.44395-0.17036 0.4468-0.29071 0.0262-1.1041-1.1564-2.2362-0.13261-3.2021 3.5317-3.3319 1.9306-0.06842 2.566-0.22017 3.1293-0.74743 0.70309-0.65803 2.8902-1.5228 4.3536-1.7213 0.71028-0.09637 0.77036-0.25212 0.81678-2.1173 0.0328-1.3174-0.094-2.1328-0.36668-2.3592-0.48144-0.39956-0.5626-2.5535-0.11316-3.0035 0.16699-0.1672 0.3982-0.89606 0.51381-1.6197 0.18701-1.1706 0.10976-1.4088-0.70035-2.16-0.5008-0.46437-1.0191-0.8443-1.1518-0.8443-0.43703 0-2.165-2.6419-2.1768-3.328-0.0233-1.3609-1.8851-2.9176-4.0821-3.4131-0.85275-0.19233-1.1022-0.13372-1.2347 0.29004-0.49763 1.5922-1.2531 3.0056-1.748 3.2705-1.3003 0.6959-2.3221 0.34848-3.7079-1.2607-1.5667-1.8192-5.5438-4.0627-6.1419-3.4646-0.19462 0.19462-0.35385 0.61306-0.35385 0.92986 0 0.49376-0.28805 0.576-2.0174 0.576-1.7042 0-2.263-0.15437-3.6-0.99449-0.87046-0.54697-2.0146-1.4335-2.5426-1.9701s-1.7299-1.33-2.6708-1.7631c-1.4697-0.67648-1.8168-0.73072-2.463-0.38489-0.98467 0.52698-1.2201 1.2044-0.62522 1.7992 0.94232 0.94232 0.36769 2.4872-1.0296 2.7679-0.49025 0.0985-1.3954 0.52318-2.0114 0.94372-0.95912 0.65479-1.1147 0.93499-1.0828 1.9506 0.0204 0.65231 0.27244 1.446 0.56 1.7637 0.6185 0.68344 0.69044 2.1458 0.12284 2.4972-0.22 0.13622-0.976 0.32472-1.68 0.41889l-1.28 0.17122-0.0923 2.7854-0.0922 2.7854 0.97225 0.50277c0.74005 0.38269 0.97225 0.7219 0.97225 1.4203 0 0.5204-0.20776 0.99727-0.48 1.1017-0.67761 0.26002-0.59576 0.73936 0.16 0.937 0.52261 0.13667 0.64 0.43648 0.64 1.6346 0 1.1207-0.15117 1.5617-0.64 1.8669-1.2245 0.76473-0.65071 0.97462 2.0626 0.75446 2.6416-0.21434 2.7145-0.20116 3.2286 0.58352 0.28931 0.44154 0.83714 0.89965 1.2174 1.018 0.38026 0.11836 1.2161 0.62798 1.8574 1.1325 0.694 0.54594 1.554 0.91727 2.1244 0.91727 0.84147 0 0.98391-0.13627 1.168-1.1174 0.26784-1.4277 0.90639-1.5989 4.9454-1.3262 3.3504 0.22626 6.0541 0.80079 7.5562 1.6057 0.528 0.28293 1.4395 0.60538 2.0256 0.71655 0.58605 0.11118 1.1414 0.39995 1.2342 0.64173 0.19317 0.50339 0.19801 0.50478 0.86613 0.2484zm-38.706-17.225c0.59087-1.3444 0.69529-1.4194 2.24-1.6093 0.89113-0.10955 2.1962-0.21025 2.9002-0.22378 2.5625-0.04925 5.1502-0.31279 5.5604-0.56629 0.34094-0.21071 0.32396-0.44514-0.0902-1.2461-0.57883-1.1193-0.67241-3.3173-0.18038-4.2367 0.32807-0.613 2.6263-1.9017 3.3914-1.9017 0.59344 0 0.88375-0.64303 0.47489-1.0519-0.19586-0.19586-0.35611-0.67751-0.35611-1.0703 0-0.42833-0.38427-0.98783-0.96-1.3978-0.528-0.37597-0.96-0.87837-0.96-1.1164 0-0.64854-2.497-3.0436-3.1732-3.0436-1.0806 0-1.3771-0.77968-1.1396-2.9975 0.17962-1.6772 0.38071-2.2063 1.067-2.8072 0.72013-0.63052 0.76314-0.75682 0.28967-0.85059-0.74449-0.14744-3.0101 1.1538-3.6142 2.0758-0.39467 0.60234-0.76501 0.73805-1.9971 0.73183-0.83194-0.0042-2.087-0.1408-2.7891-0.30355-1.008-0.23368-1.331-0.19842-1.5359 0.16763-0.14268 0.25495-0.71748 0.46355-1.2773 0.46355s-1.7407 0.27476-2.6241 0.61058c-0.8834 0.33582-2.2928 0.80382-3.132 1.04l-1.5258 0.42942 0.83726 1.1724c0.95416 1.3361 0.86814 2.7371-0.23095 3.761-0.54132 0.50432-0.5595 0.6116-0.13147 0.77585 0.27319 0.10483 0.49671 0.37649 0.49671 0.60367s0.288 0.59293 0.64 0.81276c0.70369 0.43946 0.91044 2.4294 0.29212 2.8115-0.25051 0.15482-0.25051 0.31238 0 0.56289 0.19133 0.19134 0.34788 0.65156 0.34788 1.0227 0 0.37116 0.20953 0.95436 0.46562 1.296 0.2561 0.34164 0.56267 1.4489 0.68127 2.4606 0.19663 1.6773 0.31778 1.901 1.3744 2.5387 0.63731 0.38461 1.6318 1.1049 2.2099 1.6006 0.57813 0.49572 1.2261 0.89995 1.44 0.89828 0.21388-0.0017 0.66776-0.63758 1.0086-1.4131zm39.22-6.9328c0-0.34714 0.216-0.71404 0.48-0.81535 0.264-0.10131 0.48-0.52879 0.48-0.94996s0.144-0.76576 0.32-0.76576c0.41884 0 0.41151-1.4711-0.0113-2.261-0.18219-0.34043-0.54431-0.61896-0.80471-0.61896-0.75599 0-1.7695-1.9379-1.6712-3.1954 0.0868-1.11 0.0942-1.115 1.5272-1.0307 2.2061 0.12977 4.5574 0.73507 5.3999 1.3901 0.56737 0.44114 1.0657 0.5419 1.9672 0.39775 1.4794-0.23657 3.4034 0.35555 3.8467 1.1839 0.35508 0.66348 2.0343 0.86393 2.3918 0.28552 0.29892-0.48366-1.4243-1.962-3.3246-2.852-1.2022-0.56309-1.7119-1.0025-1.8533-1.5979-0.30092-1.2668-2.0751-3.8611-2.6415-3.8624-1.2343-0.0029-2.5836-1.2874-3.5187-3.3496-0.55877-1.2323-1.1456-2.0892-1.4307-2.0892-0.63706 0-3.6971-2.5651-6.4472-5.4044-2.15-2.2197-2.8465-2.5713-4.1233-2.0814-0.2784 0.10683-0.50617 0.53883-0.50617 0.96s-0.288 1.0538-0.64 1.4058c-0.87657 0.87657-0.80496 1.3779 0.32 2.24 1.0668 0.81759 1.2975 2.2015 0.48 2.88-0.264 0.2191-0.48 0.61528-0.48 0.88041 0 0.39392-0.2948 0.44294-1.6125 0.26813-1.8456-0.24483-2.3054-0.4266-4.9475-1.956-1.056-0.61129-2.28-1.2712-2.72-1.4664s-1.069-0.4953-1.3977-0.66681c-0.40084-0.20912-0.71179-0.19778-0.944 0.03443-0.19045 0.19045-0.55258 0.34627-0.80474 0.34627-0.80212 0-1.6765 1.2791-1.3243 1.9373 0.57202 1.0688 0.371 2.4892-0.40924 2.8915-1.7804 0.91803-2.16 1.5721-2.16 3.7223 0 1.7944-0.10174 2.1338-0.84673 2.8242-0.66974 0.62069-0.73286 0.78472-0.30201 0.78472 0.33546 0 0.78225 0.53697 1.163 1.3977 0.81858 1.8506 1.4411 2.3666 2.2474 1.863 1.6549-1.0335 5.4733 0.35098 7.9738 2.8911 1.0119 1.0279 3.3478 2.1512 4.4944 2.1611 0.60907 0.0053 0.89968-0.23097 1.1722-0.95297 0.29104-0.77103 0.5502-0.96 1.3166-0.96 1.2568 0 6.8325 2.9412 7.2194 3.8082 0.16488 0.3695 0.56577 0.67182 0.89088 0.67182 0.3251 0 0.5911 0.1525 0.5911 0.33888s0.144 0.24989 0.32 0.14112 0.32-0.48179 0.32-0.82893zm-28.261-12.187c0.62957-0.59145 0.74063-1.0136 0.74063-2.815 0-2.2362 0.11231-2.4236 2.4-4.004 0.51304-0.35443 0.56065-0.52259 0.24-0.84768-0.56035-0.56811-0.49851-2.1983 0.10884-2.8694 0.51895-0.57343 0.37244-1.8881-0.21041-1.8881-0.16414 0-0.30064-0.396-0.30333-0.88-6e-3 -1.0428-0.14334-1.2577-1.5396-2.4051-0.59809-0.49151-1.4573-0.87485-1.9608-0.87485-0.49295 0-1.0755-0.216-1.2946-0.48-0.45324-0.54611-1.4646-0.63805-1.76-0.16-0.10878 0.176-0.47727 0.32-0.81889 0.32-0.34161 0-0.62111 0.20544-0.62111 0.45654s-0.792 0.81913-1.76 1.2623-1.7602 0.92172-1.7604 1.0635c-5.5e-4 0.35878-1.4572 2.0177-1.7716 2.0177-0.14166 0-0.48491 0.20467-0.76277 0.45482-0.53787 0.48425-5.4593 1.1452-8.5273 1.1452h-1.8073l0.21322 0.88c0.30626 1.264 1.4159 3.3725 2.0208 3.84 0.2847 0.22 1.203 0.4 2.0407 0.4 2.0534 0 4.6544 0.58552 5.251 1.1821 0.3654 0.36541 0.8444 0.43348 1.9177 0.27252 1.1377-0.17061 1.4699-0.11217 1.6225 0.28542 0.31578 0.82291 1.3623 0.56904 2.3658-0.57392 1.0125-1.1531 3.9374-2.3133 4.9005-1.9437 0.80909 0.31048 0.71308 2.218-0.14178 2.8168-0.7942 0.55628-1.3713 3.0163-0.85409 3.6408 0.49162 0.59362 1.2391 0.48692 2.0723-0.29578zm16.891-9.7689c-1.0223-0.91185-1.0854-2.9217-0.13217-4.2111l0.65786-0.8898-1.4736-1.5772c-0.81046-0.86748-1.6796-1.9605-1.9315-2.429-0.25185-0.46846-0.85269-1.1623-1.3352-1.5418s-1.0254-1.1344-1.2064-1.6776c-0.18102-0.54313-0.59518-1.1453-0.92035-1.3382-0.50024-0.29672-0.74648-0.15679-1.6 0.90927-0.55483 0.69298-1.6947 1.953-2.533 2.8-1.298 1.3114-1.7078 1.54-2.7608 1.54-0.73468 0-1.4063 0.20445-1.6546 0.50371-0.35736 0.43059-0.24691 0.66048 0.76082 1.5837 0.64837 0.59399 1.1789 1.2392 1.1789 1.4338s0.30357 1.0202 0.6746 1.8347c0.55837 1.2257 0.72651 1.3881 0.9759 0.94244 0.37381-0.66796 1.6552-0.70214 2.1895-0.05839 0.2191 0.264 0.63273 0.48054 0.91918 0.4812s0.97103 0.27573 1.5213 0.61126c2.3146 1.4114 5.2044 2.8593 5.9157 2.964 0.50601 0.07449 0.89547-0.10508 1.1539-0.532 0.3344-0.55253 0.27735-0.74495-0.4-1.3491z"
       id="path1" />
  </g>
</svg>
